<?xml version="1.0" encoding="utf-8"?>
<!-- Generator: Adobe Illustrator 24.0.2, SVG Export Plug-In . SVG Version: 6.00 Build 0)  -->
<svg version="1.1" id="Capa_4" xmlns="http://www.w3.org/2000/svg" xmlns:xlink="http://www.w3.org/1999/xlink" x="0px" y="0px"
	 viewBox="0 0 393.2 481.1" style="enable-background:new 0 0 393.2 481.1;" xml:space="preserve">
<style type="text/css">
	.st0{opacity:0.3;fill:#3F3D56;}
	.st1{fill:#5480DE;}
	.st2{fill:#BBCCF2;}
	.st3{fill:url(#SVGID_1_);}
	.st4{fill:url(#SVGID_2_);}
	.st5{fill:url(#SVGID_3_);}
	.st6{fill:url(#SVGID_4_);}
	.st7{fill:url(#SVGID_5_);}
	.st8{fill:url(#SVGID_6_);}
	.st9{fill:url(#SVGID_7_);}
	.st10{fill:#FFC10D;}
	.st11{fill:#194F82;}
	.st12{fill:#56ACE0;}
	.st13{fill:#ECF0F3;}
	.st14{fill:none;stroke:url(#SVGID_8_);stroke-width:3;stroke-miterlimit:10;stroke-dasharray:7.9233,7.9233;}
	.st15{fill:#929495;}
	.st16{fill-rule:evenodd;clip-rule:evenodd;fill:#48BB78;}
	.st17{fill-rule:evenodd;clip-rule:evenodd;fill:#BBCCF2;}
</style>
<g>
	<path class="st0" d="M295.8,82.5H41.9c-5,0-9-4-9-9v-31c0-5,4-9,9-9h253.9c5,0,9,4,9,9v31C304.8,78.5,300.7,82.5,295.8,82.5z
		 M41.9,35.5c-3.9,0-7,3.1-7,7v31c0,3.9,3.1,7,7,7h253.9c3.9,0,7-3.1,7-7v-31c0-3.9-3.1-7-7-7H41.9z"/>
	<path class="st1" d="M100.2,51.5c-3.6,0-6.7,2.8-6.8,6.3c-0.1,3.7,2.9,6.7,6.5,6.7l0,0l176.7,0c3.6,0,6.7-2.8,6.8-6.3
		c0.1-3.7-2.9-6.7-6.5-6.7L100.2,51.5z"/>
	<g>
		<polygon class="st2" points="69.9,49.8 69.1,49 60.9,57.2 52.7,49 51.9,49.8 60.1,58 51.9,66.2 52.7,67 60.9,58.8 69.1,67 
			69.9,66.2 61.7,58 		"/>
	</g>
	<path class="st1" d="M331.9,47.8c-0.8,0-1.5,0.3-2.1,0.9c-0.5,0.5-0.9,1.3-0.9,2.1v2.9c0,0.8,0.3,1.5,0.9,2.1
		c0.5,0.5,1.3,0.9,2.1,0.9h2.9c0.8,0,1.5-0.3,2.1-0.9c0.5-0.5,0.9-1.3,0.9-2.1v-2.9c0-0.8-0.3-1.5-0.9-2.1c-0.5-0.5-1.3-0.9-2.1-0.9
		H331.9z M331.9,59.5c-0.8,0-1.5,0.3-2.1,0.9c-0.5,0.5-0.9,1.3-0.9,2.1v2.9c0,0.8,0.3,1.5,0.9,2.1c0.5,0.5,1.3,0.9,2.1,0.9h2.9
		c0.8,0,1.5-0.3,2.1-0.9s0.9-1.3,0.9-2.1v-2.9c0-0.8-0.3-1.5-0.9-2.1c-0.5-0.5-1.3-0.9-2.1-0.9H331.9z M340.7,50.7
		c0-0.8,0.3-1.5,0.9-2.1c0.5-0.5,1.3-0.9,2.1-0.9h2.9c0.8,0,1.5,0.3,2.1,0.9c0.5,0.5,0.9,1.3,0.9,2.1v2.9c0,0.8-0.3,1.5-0.9,2.1
		c-0.5,0.5-1.3,0.9-2.1,0.9h-2.9c-0.8,0-1.5-0.3-2.1-0.9c-0.5-0.5-0.9-1.3-0.9-2.1V50.7z M345.1,59.5c0.4,0,0.8,0.2,1,0.4
		c0.3,0.3,0.4,0.6,0.4,1v1.5h1.5c0.4,0,0.8,0.2,1,0.4c0.3,0.3,0.4,0.6,0.4,1c0,0.4-0.2,0.8-0.4,1c-0.3,0.3-0.6,0.4-1,0.4h-1.5v1.5
		c0,0.4-0.2,0.8-0.4,1c-0.3,0.3-0.6,0.4-1,0.4c-0.4,0-0.8-0.2-1-0.4c-0.3-0.3-0.4-0.6-0.4-1v-1.5h-1.5c-0.4,0-0.8-0.2-1-0.4
		c-0.3-0.3-0.4-0.6-0.4-1c0-0.4,0.2-0.8,0.4-1c0.3-0.3,0.6-0.4,1-0.4h1.5v-1.5c0-0.4,0.2-0.8,0.4-1
		C344.3,59.6,344.7,59.5,345.1,59.5z"/>
	<g>
		<linearGradient id="SVGID_1_" gradientUnits="userSpaceOnUse" x1="193.2402" y1="409.4775" x2="192.1814" y2="13.4775">
			<stop  offset="0" style="stop-color:#ECF0F3"/>
			<stop  offset="1" style="stop-color:#BBCCF2"/>
		</linearGradient>
		<path class="st3" d="M350.5,280.6H35.5c-4.1,0-7.4,3.3-7.4,7.4v63.3c0,4.1,3.3,7.4,7.4,7.4h315.1c4.1,0,7.4-3.3,7.4-7.4V288
			C357.9,283.9,354.6,280.6,350.5,280.6z"/>
		<linearGradient id="SVGID_2_" gradientUnits="userSpaceOnUse" x1="198.3165" y1="409.4639" x2="197.2577" y2="13.4639">
			<stop  offset="0" style="stop-color:#ECF0F3"/>
			<stop  offset="1" style="stop-color:#BBCCF2"/>
		</linearGradient>
		<path class="st4" d="M376.6,10H19c-5,0-9,4-9,9v380.5c0,5,4,9,9,9h357.6c5,0,9-4,9-9V19C385.6,14,381.5,10,376.6,10z M383.6,399.5
			c0,3.9-3.1,7-7,7H19c-3.9,0-7-3.1-7-7V19c0-3.9,3.1-7,7-7h357.6c3.9,0,7,3.1,7,7V399.5z"/>
		<linearGradient id="SVGID_3_" gradientUnits="userSpaceOnUse" x1="198.5497" y1="409.4633" x2="197.4909" y2="13.4633">
			<stop  offset="0" style="stop-color:#ECF0F3"/>
			<stop  offset="1" style="stop-color:#BBCCF2"/>
		</linearGradient>
		<path class="st5" d="M357.7,120.6H37.9c-2.8,0-5,2.2-5,5v25.8c0,2.8,2.2,5,5,5h319.8c2.8,0,5-2.2,5-5v-25.8
			C362.7,122.9,360.5,120.6,357.7,120.6z"/>
		<linearGradient id="SVGID_4_" gradientUnits="userSpaceOnUse" x1="113.5394" y1="409.6906" x2="112.4806" y2="13.6906">
			<stop  offset="0" style="stop-color:#ECF0F3"/>
			<stop  offset="1" style="stop-color:#BBCCF2"/>
		</linearGradient>
		<path class="st6" d="M36.4,209.4h153.1c1.9,0,3.5-1.6,3.5-3.5V177c0-1.9-1.6-3.5-3.5-3.5H36.4c-1.9,0-3.5,1.6-3.5,3.5v28.8
			C32.9,207.8,34.5,209.4,36.4,209.4z"/>
		<linearGradient id="SVGID_5_" gradientUnits="userSpaceOnUse" x1="285.1576" y1="409.2317" x2="284.0988" y2="13.2317">
			<stop  offset="0" style="stop-color:#ECF0F3"/>
			<stop  offset="1" style="stop-color:#BBCCF2"/>
		</linearGradient>
		<path class="st7" d="M359.3,173.6H209.9c-1.9,0-3.4,1.5-3.4,3.4v28.9c0,1.9,1.5,3.4,3.4,3.4h149.4c1.9,0,3.4-1.5,3.4-3.4V177
			C362.7,175.1,361.2,173.6,359.3,173.6z"/>
		<linearGradient id="SVGID_6_" gradientUnits="userSpaceOnUse" x1="113.3978" y1="409.6909" x2="112.339" y2="13.691">
			<stop  offset="0" style="stop-color:#ECF0F3"/>
			<stop  offset="1" style="stop-color:#BBCCF2"/>
		</linearGradient>
		<path class="st8" d="M36.4,262.3h153.1c1.9,0,3.5-1.6,3.5-3.5V230c0-1.9-1.6-3.5-3.5-3.5H36.4c-1.9,0-3.5,1.6-3.5,3.5v28.8
			C32.9,260.7,34.5,262.3,36.4,262.3z"/>
		<linearGradient id="SVGID_7_" gradientUnits="userSpaceOnUse" x1="285.016" y1="409.2321" x2="283.9572" y2="13.2321">
			<stop  offset="0" style="stop-color:#ECF0F3"/>
			<stop  offset="1" style="stop-color:#BBCCF2"/>
		</linearGradient>
		<path class="st9" d="M359.3,226.5H209.9c-1.9,0-3.4,1.5-3.4,3.4v28.9c0,1.9,1.5,3.4,3.4,3.4h149.4c1.9,0,3.4-1.5,3.4-3.4v-28.9
			C362.7,228,361.2,226.5,359.3,226.5z"/>
	</g>
	<path class="st0" d="M353.7,82.5h-29c-5,0-9-4-9-9v-31c0-5,4-9,9-9h29c5,0,9,4,9,9v31C362.7,78.5,358.7,82.5,353.7,82.5z
		 M324.7,35.5c-3.9,0-7,3.1-7,7v31c0,3.9,3.1,7,7,7h29c3.9,0,7-3.1,7-7v-31c0-3.9-3.1-7-7-7H324.7z"/>
	<g>
		
			<image style="overflow:visible;opacity:0.34;" width="153" height="122" xlink:href="DE44DAB7.png"  transform="matrix(1 0 0 1 185 30)">
		</image>
		<g>
			<g>
				<path class="st10" d="M264.7,120c0,0.2,0,0.4-0.1,0.6h-5.8c-0.1-0.2-0.1-0.4-0.1-0.5l-0.1-12.9v-0.5c0-1.3,1.3-2.4,2.9-2.4
					c1.7,0,3,1,3,2.3v0.6L264.7,120z"/>
			</g>
			<path class="st11" d="M258.4,55.7c0,0-2.6-3-8.7-2.8c-6.1,0.1-11-4.8-11.3-5.8S234,57.2,238.6,66c0,0,3,5.7,8.1,3.3L258.4,55.7z"
				/>
			<g>
				<path class="st12" d="M266.8,50.5c0,0,25.9-6,31.6,19.7c5.8,25.7-24.2,35.1-26.1,35.7c-1.9,0.6-35.3,10.4-50.4-30.7
					c0,0-11.7-1.3-14.9-4.4c-3.2-3.1,7-12.1,8.2-14.3c1.1-2.2,7.5-0.5,11-1.6s0.7,15.1-0.3,17c0,0,3.2,3.7,10.8,1.4
					C244.3,70.9,248.7,56.2,266.8,50.5z"/>
			</g>
			<path class="st11" d="M310.1,72.5c-2.5-1.1-8.1-3.5-12.1-3.8c-0.6-0.1-1,0.4-0.9,1l1.1,8.7c0.1,0.6,0.6,0.9,1.2,0.7
				c2.3-0.8,7.8-2.8,11-5.1C310.8,73.6,310.7,72.8,310.1,72.5z"/>
			<path class="st11" d="M255.3,68.6c0,0,12.4-3.1,15.5,6.9s-7.9,14.7-12.3,16c-4.4,1.4-15.1,2-25.1-5.4c0,0,9.8-3.8,13.5-7.5
				S247.8,72.6,255.3,68.6z"/>
			<ellipse transform="matrix(0.9546 -0.298 0.298 0.9546 -7.1222 89.2811)" class="st11" cx="289.2" cy="68" rx="1.8" ry="3.5"/>
		</g>
	</g>
	<g>
		<circle class="st13" cx="197.8" cy="209.3" r="60.5"/>
		<linearGradient id="SVGID_8_" gradientUnits="userSpaceOnUse" x1="197.8253" y1="271.2982" x2="197.8253" y2="147.2171">
			<stop  offset="0" style="stop-color:#ECF0F3"/>
			<stop  offset="1" style="stop-color:#BBCCF2"/>
		</linearGradient>
		
			<ellipse transform="matrix(0.7071 -0.7071 0.7071 0.7071 -90.0258 201.1738)" class="st14" cx="197.8" cy="209.3" rx="60.5" ry="60.5"/>
	</g>
	<g>
		<path class="st15" d="M24.1,420.1c1.4,0,2.5,0.3,3.2,0.8c0.7,0.5,1.1,1.4,1.1,2.6c0,1.3-0.4,2.2-1.2,2.8c-0.8,0.6-1.9,0.9-3.3,0.9
			h-2v5.1h-0.7v-12.1H24.1z M24,420.7h-2.2v5.8h1.9c0.8,0,1.5-0.1,2-0.3c0.6-0.2,1-0.5,1.4-0.9c0.3-0.4,0.5-1.1,0.5-1.8
			c0-1-0.3-1.7-0.9-2.1C26.2,420.9,25.3,420.7,24,420.7z"/>
		<path class="st15" d="M33.9,423.1c1,0,1.7,0.3,2.2,0.8c0.5,0.5,0.7,1.3,0.7,2.4v6h-0.5l-0.1-1.7h0c-0.3,0.5-0.7,1-1.1,1.3
			c-0.5,0.4-1.2,0.5-2.1,0.5c-0.9,0-1.6-0.2-2-0.6s-0.7-1-0.7-1.8c0-0.9,0.4-1.6,1.1-2c0.7-0.5,1.8-0.7,3.2-0.8l1.7-0.1v-0.7
			c0-1-0.2-1.7-0.6-2.1c-0.4-0.4-0.9-0.6-1.7-0.6c-0.5,0-0.9,0.1-1.3,0.2c-0.4,0.1-0.9,0.3-1.3,0.5l-0.2-0.6
			c0.4-0.2,0.9-0.4,1.4-0.5C32.9,423.2,33.4,423.1,33.9,423.1z M36.1,427.6l-1.6,0.1c-1.2,0.1-2.1,0.3-2.7,0.6c-0.6,0.4-1,0.9-1,1.7
			c0,0.6,0.2,1,0.6,1.4s0.9,0.5,1.6,0.5c1.1,0,1.9-0.3,2.4-0.9c0.5-0.6,0.8-1.4,0.8-2.4V427.6z"/>
		<path class="st15" d="M43.1,423.1c0.2,0,0.5,0,0.7,0.1s0.4,0.1,0.6,0.1l-0.1,0.6c-0.4-0.1-0.8-0.2-1.2-0.2c-0.9,0-1.6,0.3-2,1
			c-0.5,0.6-0.7,1.5-0.7,2.6v5h-0.6v-9h0.6l0.1,1.7h0.1c0.2-0.5,0.5-1,1-1.3C41.8,423.3,42.4,423.1,43.1,423.1z"/>
		<path class="st15" d="M48.9,423.1c1,0,1.7,0.3,2.2,0.8c0.5,0.5,0.7,1.3,0.7,2.4v6h-0.5l-0.1-1.7h0c-0.3,0.5-0.7,1-1.1,1.3
			c-0.5,0.4-1.2,0.5-2.1,0.5c-0.9,0-1.6-0.2-2-0.6s-0.7-1-0.7-1.8c0-0.9,0.4-1.6,1.1-2c0.7-0.5,1.8-0.7,3.2-0.8l1.7-0.1v-0.7
			c0-1-0.2-1.7-0.6-2.1c-0.4-0.4-0.9-0.6-1.7-0.6c-0.5,0-0.9,0.1-1.3,0.2c-0.4,0.1-0.9,0.3-1.3,0.5l-0.2-0.6
			c0.4-0.2,0.9-0.4,1.4-0.5C47.9,423.2,48.4,423.1,48.9,423.1z M51.1,427.6l-1.6,0.1c-1.2,0.1-2.1,0.3-2.7,0.6c-0.6,0.4-1,0.9-1,1.7
			c0,0.6,0.2,1,0.6,1.4s0.9,0.5,1.6,0.5c1.1,0,1.9-0.3,2.4-0.9c0.5-0.6,0.8-1.4,0.8-2.4V427.6z"/>
		<path class="st15" d="M63,423.1c1.2,0,2.1,0.4,2.7,1.2c0.6,0.8,0.9,1.9,0.9,3.4c0,1.5-0.3,2.7-1,3.5c-0.7,0.8-1.6,1.2-2.8,1.2
			c-0.9,0-1.5-0.2-2-0.6c-0.5-0.4-0.9-0.8-1.1-1.4h0c0,0.3,0,0.7,0,1c0,0.4,0,0.7,0,1v3.7h-0.6v-13h0.5l0.1,2h0
			c0.1-0.4,0.3-0.7,0.6-1c0.3-0.3,0.6-0.6,1.1-0.8C61.9,423.2,62.4,423.1,63,423.1z M63,423.7c-1.1,0-1.8,0.3-2.4,1
			c-0.5,0.7-0.8,1.7-0.8,3v0.1c0,1.4,0.3,2.4,0.8,3.1c0.5,0.7,1.3,1,2.3,1c1,0,1.8-0.4,2.3-1.1c0.5-0.7,0.8-1.7,0.8-3.1
			C66,425,65,423.7,63,423.7z"/>
		<path class="st15" d="M76.5,427.7c0,0.9-0.1,1.7-0.4,2.4c-0.3,0.7-0.7,1.3-1.3,1.7c-0.6,0.4-1.3,0.6-2.2,0.6
			c-0.9,0-1.6-0.2-2.2-0.6c-0.6-0.4-1-0.9-1.3-1.6c-0.3-0.7-0.5-1.5-0.5-2.4c0-1.4,0.4-2.6,1.1-3.4s1.7-1.3,2.9-1.3
			c0.9,0,1.6,0.2,2.2,0.6c0.6,0.4,1,1,1.3,1.7C76.4,426.1,76.5,426.9,76.5,427.7z M69.3,427.7c0,1.2,0.3,2.2,0.8,2.9
			c0.5,0.8,1.3,1.1,2.4,1.1c0.8,0,1.4-0.2,1.9-0.5c0.5-0.3,0.8-0.8,1.1-1.4c0.2-0.6,0.3-1.3,0.3-2.1c0-0.8-0.1-1.5-0.3-2.1
			c-0.2-0.6-0.6-1.1-1-1.5c-0.5-0.4-1.1-0.5-1.9-0.5c-1.1,0-1.9,0.4-2.5,1.1C69.6,425.5,69.3,426.5,69.3,427.7z"/>
		<path class="st15" d="M82.3,432.4c-1.3,0-2.2-0.4-2.8-1.2c-0.6-0.8-1-1.9-1-3.4c0-1.6,0.3-2.7,1-3.6c0.7-0.8,1.6-1.2,2.9-1.2
			c0.8,0,1.4,0.2,1.9,0.6s0.8,0.8,1.1,1.4h0.1c0-0.3,0-0.7,0-1c0-0.4,0-0.7,0-1v-3.7H86v12.9h-0.5l-0.1-1.8h0
			c-0.2,0.5-0.6,1-1.1,1.4C83.8,432.2,83.2,432.4,82.3,432.4z M82.4,431.8c1.1,0,1.9-0.3,2.3-1s0.7-1.7,0.7-2.9v-0.1
			c0-1.3-0.2-2.3-0.7-3c-0.5-0.7-1.2-1-2.2-1c-1.1,0-1.9,0.4-2.4,1.1s-0.8,1.8-0.8,3.2C79.2,430.5,80.2,431.8,82.4,431.8z"/>
		<path class="st15" d="M92.5,423.1c0.8,0,1.4,0.2,1.9,0.6c0.5,0.4,0.9,0.9,1.1,1.5s0.4,1.3,0.4,2.1v0.5h-6.6c0,1.3,0.3,2.3,0.9,3
			s1.4,1,2.6,1c0.6,0,1,0,1.4-0.1c0.4-0.1,0.9-0.2,1.4-0.5v0.6c-0.4,0.2-0.9,0.3-1.3,0.4s-0.9,0.1-1.5,0.1c-0.9,0-1.7-0.2-2.3-0.6
			c-0.6-0.4-1.1-0.9-1.4-1.6c-0.3-0.7-0.5-1.5-0.5-2.4c0-0.9,0.1-1.7,0.4-2.4c0.3-0.7,0.7-1.3,1.3-1.7
			C90.9,423.3,91.6,423.1,92.5,423.1z M92.5,423.7c-0.9,0-1.6,0.3-2.2,0.9c-0.6,0.6-0.9,1.5-1,2.6h5.9c0-1.1-0.2-1.9-0.7-2.6
			S93.4,423.7,92.5,423.7z"/>
		<path class="st15" d="M101.7,423.1c0.2,0,0.5,0,0.7,0.1s0.4,0.1,0.6,0.1l-0.1,0.6c-0.4-0.1-0.8-0.2-1.2-0.2c-0.9,0-1.6,0.3-2,1
			c-0.5,0.6-0.7,1.5-0.7,2.6v5h-0.6v-9h0.6L99,425H99c0.2-0.5,0.5-1,1-1.3C100.5,423.3,101,423.1,101.7,423.1z"/>
		<path class="st15" d="M112.3,423.1c1,0,1.7,0.3,2.2,0.8c0.5,0.5,0.7,1.3,0.7,2.4v6h-0.5l-0.1-1.7h0c-0.3,0.5-0.7,1-1.1,1.3
			c-0.5,0.4-1.2,0.5-2.1,0.5c-0.9,0-1.6-0.2-2-0.6s-0.7-1-0.7-1.8c0-0.9,0.4-1.6,1.1-2c0.7-0.5,1.8-0.7,3.2-0.8l1.7-0.1v-0.7
			c0-1-0.2-1.7-0.6-2.1c-0.4-0.4-0.9-0.6-1.7-0.6c-0.5,0-0.9,0.1-1.3,0.2c-0.4,0.1-0.9,0.3-1.3,0.5l-0.2-0.6
			c0.4-0.2,0.9-0.4,1.4-0.5C111.3,423.2,111.8,423.1,112.3,423.1z M114.5,427.6l-1.6,0.1c-1.2,0.1-2.1,0.3-2.7,0.6
			c-0.6,0.4-1,0.9-1,1.7c0,0.6,0.2,1,0.6,1.4s0.9,0.5,1.6,0.5c1.1,0,1.9-0.3,2.4-0.9c0.5-0.6,0.8-1.4,0.8-2.4V427.6z"/>
		<path class="st15" d="M121.5,423.1c0.8,0,1.4,0.2,1.8,0.5c0.5,0.3,0.8,0.7,1.1,1.2h0.1l0.1-1.5h0.5v9.4c0,1.1-0.3,2-0.9,2.7
			c-0.6,0.7-1.6,1-2.9,1c-0.7,0-1.3-0.1-1.8-0.2c-0.5-0.1-1-0.3-1.4-0.4V435c0.4,0.2,0.9,0.4,1.4,0.5c0.5,0.1,1.1,0.2,1.8,0.2
			c1.1,0,1.9-0.3,2.4-0.8c0.5-0.6,0.7-1.3,0.7-2.3V432c0-0.3,0-0.5,0-0.8c0-0.2,0-0.5,0-0.8h-0.1c-0.5,1.3-1.5,2-3.1,2
			c-1.2,0-2.1-0.4-2.7-1.2s-1-1.9-1-3.4c0-1.5,0.3-2.6,1-3.5C119.2,423.5,120.2,423.1,121.5,423.1z M121.5,423.7
			c-1.1,0-1.9,0.4-2.4,1.1s-0.8,1.8-0.8,3.1c0,1.3,0.3,2.3,0.8,2.9c0.5,0.7,1.3,1,2.3,1c0.8,0,1.5-0.2,1.9-0.5
			c0.4-0.4,0.8-0.8,0.9-1.4s0.3-1.2,0.3-1.8v-0.7c0-0.7-0.1-1.4-0.3-1.9c-0.2-0.5-0.5-1-0.9-1.3S122.3,423.7,121.5,423.7z"/>
		<path class="st15" d="M131.6,423.1c0.2,0,0.5,0,0.7,0.1s0.4,0.1,0.6,0.1l-0.1,0.6c-0.4-0.1-0.8-0.2-1.2-0.2c-0.9,0-1.6,0.3-2,1
			c-0.5,0.6-0.7,1.5-0.7,2.6v5h-0.6v-9h0.6l0.1,1.7h0.1c0.2-0.5,0.5-1,1-1.3C130.3,423.3,130.9,423.1,131.6,423.1z"/>
		<path class="st15" d="M137.7,423.1c0.8,0,1.4,0.2,1.9,0.6c0.5,0.4,0.9,0.9,1.1,1.5s0.4,1.3,0.4,2.1v0.5h-6.6c0,1.3,0.3,2.3,0.9,3
			s1.4,1,2.6,1c0.6,0,1,0,1.4-0.1c0.4-0.1,0.9-0.2,1.4-0.5v0.6c-0.4,0.2-0.9,0.3-1.3,0.4s-0.9,0.1-1.5,0.1c-0.9,0-1.7-0.2-2.3-0.6
			c-0.6-0.4-1.1-0.9-1.4-1.6c-0.3-0.7-0.5-1.5-0.5-2.4c0-0.9,0.1-1.7,0.4-2.4c0.3-0.7,0.7-1.3,1.3-1.7
			C136.1,423.3,136.8,423.1,137.7,423.1z M137.7,423.7c-0.9,0-1.6,0.3-2.2,0.9c-0.6,0.6-0.9,1.5-1,2.6h5.9c0-1.1-0.2-1.9-0.7-2.6
			S138.6,423.7,137.7,423.7z"/>
		<path class="st15" d="M147,423.1c0.8,0,1.4,0.2,1.8,0.5c0.5,0.3,0.8,0.7,1.1,1.2h0.1l0.1-1.5h0.5v9.4c0,1.1-0.3,2-0.9,2.7
			c-0.6,0.7-1.6,1-2.9,1c-0.7,0-1.3-0.1-1.8-0.2c-0.5-0.1-1-0.3-1.4-0.4V435c0.4,0.2,0.9,0.4,1.4,0.5c0.5,0.1,1.1,0.2,1.8,0.2
			c1.1,0,1.9-0.3,2.4-0.8c0.5-0.6,0.7-1.3,0.7-2.3V432c0-0.3,0-0.5,0-0.8c0-0.2,0-0.5,0-0.8h-0.1c-0.5,1.3-1.5,2-3.1,2
			c-1.2,0-2.1-0.4-2.7-1.2s-1-1.9-1-3.4c0-1.5,0.3-2.6,1-3.5C144.7,423.5,145.7,423.1,147,423.1z M147,423.7c-1.1,0-1.9,0.4-2.4,1.1
			s-0.8,1.8-0.8,3.1c0,1.3,0.3,2.3,0.8,2.9c0.5,0.7,1.3,1,2.3,1c0.8,0,1.5-0.2,1.9-0.5c0.4-0.4,0.8-0.8,0.9-1.4s0.3-1.2,0.3-1.8
			v-0.7c0-0.7-0.1-1.4-0.3-1.9c-0.2-0.5-0.5-1-0.9-1.3S147.7,423.7,147,423.7z"/>
		<path class="st15" d="M156.7,423.1c1,0,1.7,0.3,2.2,0.8c0.5,0.5,0.7,1.3,0.7,2.4v6H159l-0.1-1.7h0c-0.3,0.5-0.7,1-1.1,1.3
			c-0.5,0.4-1.2,0.5-2.1,0.5c-0.9,0-1.6-0.2-2-0.6s-0.7-1-0.7-1.8c0-0.9,0.4-1.6,1.1-2c0.7-0.5,1.8-0.7,3.2-0.8l1.7-0.1v-0.7
			c0-1-0.2-1.7-0.6-2.1c-0.4-0.4-0.9-0.6-1.7-0.6c-0.5,0-0.9,0.1-1.3,0.2c-0.4,0.1-0.9,0.3-1.3,0.5l-0.2-0.6
			c0.4-0.2,0.9-0.4,1.4-0.5C155.6,423.2,156.2,423.1,156.7,423.1z M158.9,427.6l-1.6,0.1c-1.2,0.1-2.1,0.3-2.7,0.6
			c-0.6,0.4-1,0.9-1,1.7c0,0.6,0.2,1,0.6,1.4s0.9,0.5,1.6,0.5c1.1,0,1.9-0.3,2.4-0.9c0.5-0.6,0.8-1.4,0.8-2.4V427.6z"/>
		<path class="st15" d="M165.9,423.1c0.2,0,0.5,0,0.7,0.1s0.4,0.1,0.6,0.1l-0.1,0.6c-0.4-0.1-0.8-0.2-1.2-0.2c-0.9,0-1.6,0.3-2,1
			c-0.5,0.6-0.7,1.5-0.7,2.6v5h-0.6v-9h0.6l0.1,1.7h0.1c0.2-0.5,0.5-1,1-1.3C164.6,423.3,165.2,423.1,165.9,423.1z"/>
		<path class="st15" d="M177.3,423.1c1.2,0,2.1,0.4,2.7,1.2c0.6,0.8,0.9,1.9,0.9,3.4c0,1.5-0.3,2.7-1,3.5c-0.7,0.8-1.6,1.2-2.8,1.2
			c-0.9,0-1.5-0.2-2-0.6c-0.5-0.4-0.9-0.8-1.1-1.4h0c0,0.3,0,0.7,0,1c0,0.4,0,0.7,0,1v3.7h-0.6v-13h0.5l0.1,2h0
			c0.1-0.4,0.3-0.7,0.6-1c0.3-0.3,0.6-0.6,1.1-0.8C176.2,423.2,176.7,423.1,177.3,423.1z M177.2,423.7c-1.1,0-1.8,0.3-2.4,1
			c-0.5,0.7-0.8,1.7-0.8,3v0.1c0,1.4,0.3,2.4,0.8,3.1c0.5,0.7,1.3,1,2.3,1c1,0,1.8-0.4,2.3-1.1c0.5-0.7,0.8-1.7,0.8-3.1
			C180.3,425,179.3,423.7,177.2,423.7z"/>
		<path class="st15" d="M186.9,423.1c0.2,0,0.5,0,0.7,0.1s0.4,0.1,0.6,0.1l-0.1,0.6c-0.4-0.1-0.8-0.2-1.2-0.2c-0.9,0-1.6,0.3-2,1
			c-0.5,0.6-0.7,1.5-0.7,2.6v5h-0.6v-9h0.6l0.1,1.7h0.1c0.2-0.5,0.5-1,1-1.3C185.6,423.3,186.1,423.1,186.9,423.1z"/>
		<path class="st15" d="M197,427.7c0,0.9-0.1,1.7-0.4,2.4c-0.3,0.7-0.7,1.3-1.3,1.7c-0.6,0.4-1.3,0.6-2.2,0.6
			c-0.9,0-1.6-0.2-2.2-0.6c-0.6-0.4-1-0.9-1.3-1.6c-0.3-0.7-0.5-1.5-0.5-2.4c0-1.4,0.4-2.6,1.1-3.4s1.7-1.3,2.9-1.3
			c0.9,0,1.6,0.2,2.2,0.6c0.6,0.4,1,1,1.3,1.7C196.8,426.1,197,426.9,197,427.7z M189.8,427.7c0,1.2,0.3,2.2,0.8,2.9
			c0.5,0.8,1.3,1.1,2.4,1.1c0.8,0,1.4-0.2,1.9-0.5c0.5-0.3,0.8-0.8,1.1-1.4c0.2-0.6,0.3-1.3,0.3-2.1c0-0.8-0.1-1.5-0.3-2.1
			c-0.2-0.6-0.6-1.1-1-1.5c-0.5-0.4-1.1-0.5-1.9-0.5c-1.1,0-1.9,0.4-2.5,1.1C190,425.5,189.8,426.5,189.8,427.7z"/>
		<path class="st15" d="M202.7,432.4c-1.3,0-2.2-0.4-2.8-1.2c-0.6-0.8-1-1.9-1-3.4c0-1.6,0.3-2.7,1-3.6c0.7-0.8,1.6-1.2,2.9-1.2
			c0.8,0,1.4,0.2,1.9,0.6s0.8,0.8,1.1,1.4h0.1c0-0.3,0-0.7,0-1c0-0.4,0-0.7,0-1v-3.7h0.6v12.9h-0.5l-0.1-1.8h0
			c-0.2,0.5-0.6,1-1.1,1.4C204.3,432.2,203.6,432.4,202.7,432.4z M202.8,431.8c1.1,0,1.9-0.3,2.3-1s0.7-1.7,0.7-2.9v-0.1
			c0-1.3-0.2-2.3-0.7-3c-0.5-0.7-1.2-1-2.2-1c-1.1,0-1.9,0.4-2.4,1.1s-0.8,1.8-0.8,3.2C199.6,430.5,200.7,431.8,202.8,431.8z"/>
		<path class="st15" d="M216.4,423.2v9h-0.5l-0.1-1.8h0c-0.2,0.5-0.6,1-1.1,1.3c-0.5,0.4-1.2,0.6-2.1,0.6c-2.1,0-3.1-1.1-3.1-3.3
			v-5.9h0.7v5.8c0,0.9,0.2,1.6,0.6,2.1c0.4,0.4,1,0.7,1.9,0.7c1,0,1.8-0.3,2.3-0.9s0.8-1.5,0.8-2.7v-5.1H216.4z"/>
		<path class="st15" d="M223,432.4c-0.9,0-1.7-0.2-2.3-0.6c-0.6-0.4-1.1-0.9-1.4-1.6c-0.3-0.7-0.5-1.5-0.5-2.4c0-1,0.2-1.8,0.5-2.5
			s0.9-1.3,1.5-1.6c0.7-0.4,1.4-0.6,2.3-0.6c0.4,0,0.8,0,1.2,0.1c0.4,0.1,0.7,0.2,1,0.3l-0.2,0.6c-0.3-0.1-0.7-0.3-1-0.3
			c-0.3-0.1-0.7-0.1-1-0.1c-0.8,0-1.4,0.2-2,0.5s-1,0.8-1.3,1.4c-0.3,0.6-0.4,1.3-0.4,2.2c0,0.8,0.1,1.5,0.4,2.1
			c0.2,0.6,0.6,1.1,1.1,1.4c0.5,0.4,1.2,0.5,2,0.5c0.4,0,0.8,0,1.2-0.1c0.4-0.1,0.8-0.2,1.1-0.3v0.6c-0.3,0.1-0.6,0.2-1,0.3
			S223.5,432.4,223,432.4z"/>
		<path class="st15" d="M229.7,431.8c0.3,0,0.5,0,0.7-0.1c0.2,0,0.4-0.1,0.6-0.1v0.6c-0.2,0.1-0.4,0.1-0.6,0.2
			c-0.2,0-0.5,0.1-0.8,0.1c-0.8,0-1.3-0.2-1.7-0.7c-0.3-0.4-0.5-1.1-0.5-1.9v-6h-1.4v-0.4l1.4-0.2l0.2-2.2h0.5v2.2h2.9v0.6h-2.9v5.9
			c0,0.7,0.1,1.2,0.3,1.5C228.7,431.6,229.2,431.8,229.7,431.8z"/>
		<path class="st15" d="M240.4,427.7c0,0.9-0.1,1.7-0.4,2.4c-0.3,0.7-0.7,1.3-1.3,1.7c-0.6,0.4-1.3,0.6-2.2,0.6
			c-0.9,0-1.6-0.2-2.2-0.6c-0.6-0.4-1-0.9-1.3-1.6c-0.3-0.7-0.5-1.5-0.5-2.4c0-1.4,0.4-2.6,1.1-3.4s1.7-1.3,2.9-1.3
			c0.9,0,1.6,0.2,2.2,0.6c0.6,0.4,1,1,1.3,1.7C240.3,426.1,240.4,426.9,240.4,427.7z M233.2,427.7c0,1.2,0.3,2.2,0.8,2.9
			c0.5,0.8,1.3,1.1,2.4,1.1c0.8,0,1.4-0.2,1.9-0.5c0.5-0.3,0.8-0.8,1.1-1.4c0.2-0.6,0.3-1.3,0.3-2.1c0-0.8-0.1-1.5-0.3-2.1
			c-0.2-0.6-0.6-1.1-1-1.5c-0.5-0.4-1.1-0.5-1.9-0.5c-1.1,0-1.9,0.4-2.5,1.1C233.5,425.5,233.2,426.5,233.2,427.7z"/>
		<path class="st15" d="M248.5,429.9c0,0.8-0.3,1.4-0.9,1.8c-0.6,0.4-1.4,0.7-2.6,0.7c-0.6,0-1.2-0.1-1.7-0.2s-0.9-0.2-1.2-0.4v-0.7
			c0.4,0.2,0.9,0.4,1.4,0.5c0.5,0.1,1,0.2,1.5,0.2c1,0,1.7-0.2,2.1-0.5c0.4-0.3,0.7-0.8,0.7-1.4c0-0.4-0.1-0.7-0.3-1
			c-0.2-0.2-0.5-0.5-0.9-0.6c-0.4-0.2-0.9-0.3-1.4-0.5c-0.5-0.2-1-0.4-1.5-0.5c-0.4-0.2-0.8-0.4-1-0.7c-0.2-0.3-0.4-0.7-0.4-1.3
			c0-0.7,0.3-1.3,0.9-1.7s1.3-0.6,2.3-0.6c0.5,0,1,0.1,1.5,0.2c0.5,0.1,0.9,0.2,1.3,0.4l-0.3,0.6c-0.3-0.2-0.7-0.3-1.2-0.4
			s-0.9-0.1-1.4-0.1c-0.8,0-1.4,0.1-1.8,0.4c-0.4,0.3-0.7,0.7-0.7,1.3c0,0.4,0.1,0.7,0.3,1s0.5,0.4,0.9,0.6s0.8,0.3,1.3,0.5
			c0.5,0.2,1,0.3,1.4,0.5c0.5,0.2,0.8,0.4,1.1,0.8S248.5,429.4,248.5,429.9z"/>
		<path class="st15" d="M257.5,431.8c0.3,0,0.5,0,0.7-0.1c0.2,0,0.4-0.1,0.6-0.1v0.6c-0.2,0.1-0.4,0.1-0.6,0.2
			c-0.2,0-0.5,0.1-0.8,0.1c-0.8,0-1.3-0.2-1.7-0.7c-0.3-0.4-0.5-1.1-0.5-1.9v-6h-1.4v-0.4l1.4-0.2l0.2-2.2h0.5v2.2h2.9v0.6h-2.9v5.9
			c0,0.7,0.1,1.2,0.3,1.5C256.5,431.6,256.9,431.8,257.5,431.8z"/>
		<path class="st15" d="M261.1,419.9c0.2,0,0.4,0.1,0.4,0.2s0.1,0.3,0.1,0.4c0,0.2,0,0.3-0.1,0.4s-0.2,0.2-0.4,0.2
			c-0.2,0-0.3-0.1-0.4-0.2s-0.1-0.3-0.1-0.4c0-0.2,0-0.3,0.1-0.4S260.9,419.9,261.1,419.9z M261.4,423.2v9h-0.7v-9H261.4z"/>
		<path class="st15" d="M267.8,423.1c0.8,0,1.4,0.2,1.9,0.6c0.5,0.4,0.9,0.9,1.1,1.5s0.4,1.3,0.4,2.1v0.5h-6.6c0,1.3,0.3,2.3,0.9,3
			s1.4,1,2.6,1c0.6,0,1,0,1.4-0.1c0.4-0.1,0.9-0.2,1.4-0.5v0.6c-0.4,0.2-0.9,0.3-1.3,0.4s-0.9,0.1-1.5,0.1c-0.9,0-1.7-0.2-2.3-0.6
			c-0.6-0.4-1.1-0.9-1.4-1.6c-0.3-0.7-0.5-1.5-0.5-2.4c0-0.9,0.1-1.7,0.4-2.4c0.3-0.7,0.7-1.3,1.3-1.7
			C266.3,423.3,267,423.1,267.8,423.1z M267.8,423.7c-0.9,0-1.6,0.3-2.2,0.9c-0.6,0.6-0.9,1.5-1,2.6h5.9c0-1.1-0.2-1.9-0.7-2.6
			S268.7,423.7,267.8,423.7z"/>
		<path class="st15" d="M277.6,423.1c1,0,1.8,0.3,2.3,0.8c0.5,0.5,0.8,1.4,0.8,2.5v5.9H280v-5.9c0-0.9-0.2-1.6-0.6-2.1
			c-0.4-0.4-1-0.7-1.9-0.7c-1,0-1.8,0.3-2.3,0.9c-0.6,0.6-0.8,1.5-0.8,2.7v5h-0.7v-9h0.5l0.1,1.8h0.1c0.2-0.5,0.6-1,1.1-1.4
			C276,423.3,276.7,423.1,277.6,423.1z"/>
		<path class="st15" d="M287,423.1c0.8,0,1.4,0.2,1.9,0.6c0.5,0.4,0.9,0.9,1.1,1.5s0.4,1.3,0.4,2.1v0.5h-6.6c0,1.3,0.3,2.3,0.9,3
			s1.4,1,2.6,1c0.6,0,1,0,1.4-0.1c0.4-0.1,0.9-0.2,1.4-0.5v0.6c-0.4,0.2-0.9,0.3-1.3,0.4s-0.9,0.1-1.5,0.1c-0.9,0-1.7-0.2-2.3-0.6
			c-0.6-0.4-1.1-0.9-1.4-1.6c-0.3-0.7-0.5-1.5-0.5-2.4c0-0.9,0.1-1.7,0.4-2.4c0.3-0.7,0.7-1.3,1.3-1.7
			C285.4,423.3,286.1,423.1,287,423.1z M287,423.7c-0.9,0-1.6,0.3-2.2,0.9c-0.6,0.6-0.9,1.5-1,2.6h5.9c0-1.1-0.2-1.9-0.7-2.6
			S287.9,423.7,287,423.7z"/>
		<path class="st15" d="M298.4,429.9c0,0.8-0.3,1.4-0.9,1.8c-0.6,0.4-1.4,0.7-2.6,0.7c-0.6,0-1.2-0.1-1.7-0.2s-0.9-0.2-1.2-0.4v-0.7
			c0.4,0.2,0.9,0.4,1.4,0.5c0.5,0.1,1,0.2,1.5,0.2c1,0,1.7-0.2,2.1-0.5c0.4-0.3,0.7-0.8,0.7-1.4c0-0.4-0.1-0.7-0.3-1
			c-0.2-0.2-0.5-0.5-0.9-0.6c-0.4-0.2-0.9-0.3-1.4-0.5c-0.5-0.2-1-0.4-1.5-0.5c-0.4-0.2-0.8-0.4-1-0.7c-0.2-0.3-0.4-0.7-0.4-1.3
			c0-0.7,0.3-1.3,0.9-1.7s1.3-0.6,2.3-0.6c0.5,0,1,0.1,1.5,0.2c0.5,0.1,0.9,0.2,1.3,0.4l-0.3,0.6c-0.3-0.2-0.7-0.3-1.2-0.4
			s-0.9-0.1-1.4-0.1c-0.8,0-1.4,0.1-1.8,0.4c-0.4,0.3-0.7,0.7-0.7,1.3c0,0.4,0.1,0.7,0.3,1s0.5,0.4,0.9,0.6s0.8,0.3,1.3,0.5
			c0.5,0.2,1,0.3,1.4,0.5c0.5,0.2,0.8,0.4,1.1,0.8S298.4,429.4,298.4,429.9z"/>
		<path class="st15" d="M311.5,436.2v-4c0-0.3,0-0.6,0-1s0-0.7,0-1h-0.1c-0.2,0.6-0.6,1.1-1.1,1.5c-0.6,0.4-1.3,0.6-2.1,0.6
			c-1.2,0-2.1-0.4-2.7-1.2c-0.6-0.8-0.9-1.9-0.9-3.5c0-0.9,0.1-1.7,0.4-2.4c0.3-0.7,0.7-1.3,1.3-1.7c0.6-0.4,1.3-0.6,2.2-0.6
			c0.8,0,1.4,0.2,1.9,0.5c0.5,0.4,0.8,0.8,1.1,1.3h0l0.1-1.7h0.5v13H311.5z M308.3,431.8c1.1,0,1.9-0.4,2.4-1.1
			c0.5-0.7,0.8-1.7,0.8-3v-0.2c0-1.3-0.2-2.3-0.7-2.9c-0.5-0.7-1.2-1-2.3-1c-1.1,0-1.9,0.4-2.4,1.1c-0.5,0.7-0.8,1.7-0.8,3
			c0,1.3,0.2,2.3,0.7,3S307.3,431.8,308.3,431.8z"/>
		<path class="st15" d="M322,423.2v9h-0.5l-0.1-1.8h0c-0.2,0.5-0.6,1-1.1,1.3c-0.5,0.4-1.2,0.6-2.1,0.6c-2.1,0-3.1-1.1-3.1-3.3v-5.9
			h0.7v5.8c0,0.9,0.2,1.6,0.6,2.1c0.4,0.4,1,0.7,1.9,0.7c1,0,1.8-0.3,2.3-0.9s0.8-1.5,0.8-2.7v-5.1H322z"/>
		<path class="st15" d="M328.5,423.1c0.8,0,1.4,0.2,1.9,0.6c0.5,0.4,0.9,0.9,1.1,1.5s0.4,1.3,0.4,2.1v0.5h-6.6c0,1.3,0.3,2.3,0.9,3
			s1.4,1,2.6,1c0.6,0,1,0,1.4-0.1c0.4-0.1,0.9-0.2,1.4-0.5v0.6c-0.4,0.2-0.9,0.3-1.3,0.4s-0.9,0.1-1.5,0.1c-0.9,0-1.7-0.2-2.3-0.6
			c-0.6-0.4-1.1-0.9-1.4-1.6c-0.3-0.7-0.5-1.5-0.5-2.4c0-0.9,0.1-1.7,0.4-2.4c0.3-0.7,0.7-1.3,1.3-1.7
			C326.9,423.3,327.6,423.1,328.5,423.1z M328.5,423.7c-0.9,0-1.6,0.3-2.2,0.9c-0.6,0.6-0.9,1.5-1,2.6h5.9c0-1.1-0.2-1.9-0.7-2.6
			S329.4,423.7,328.5,423.7z"/>
		<path class="st15" d="M342.4,432.4c-0.9,0-1.7-0.2-2.3-0.6c-0.6-0.4-1.1-0.9-1.4-1.6c-0.3-0.7-0.5-1.5-0.5-2.4
			c0-1,0.2-1.8,0.5-2.5s0.9-1.3,1.5-1.6c0.7-0.4,1.4-0.6,2.3-0.6c0.4,0,0.8,0,1.2,0.1c0.4,0.1,0.7,0.2,1,0.3l-0.2,0.6
			c-0.3-0.1-0.7-0.3-1-0.3c-0.3-0.1-0.7-0.1-1-0.1c-0.8,0-1.4,0.2-2,0.5s-1,0.8-1.3,1.4c-0.3,0.6-0.4,1.3-0.4,2.2
			c0,0.8,0.1,1.5,0.4,2.1c0.2,0.6,0.6,1.1,1.1,1.4c0.5,0.4,1.2,0.5,2,0.5c0.4,0,0.8,0,1.2-0.1c0.4-0.1,0.8-0.2,1.1-0.3v0.6
			c-0.3,0.1-0.6,0.2-1,0.3S342.9,432.4,342.4,432.4z"/>
		<path class="st15" d="M350.2,423.1c0.2,0,0.5,0,0.7,0.1s0.4,0.1,0.6,0.1l-0.1,0.6c-0.4-0.1-0.8-0.2-1.2-0.2c-0.9,0-1.6,0.3-2,1
			c-0.5,0.6-0.7,1.5-0.7,2.6v5h-0.6v-9h0.6l0.1,1.7h0.1c0.2-0.5,0.5-1,1-1.3C348.9,423.3,349.5,423.1,350.2,423.1z"/>
		<path class="st15" d="M356.4,423.1c0.8,0,1.4,0.2,1.9,0.6c0.5,0.4,0.9,0.9,1.1,1.5s0.4,1.3,0.4,2.1v0.5h-6.6c0,1.3,0.3,2.3,0.9,3
			s1.4,1,2.6,1c0.6,0,1,0,1.4-0.1c0.4-0.1,0.9-0.2,1.4-0.5v0.6c-0.4,0.2-0.9,0.3-1.3,0.4s-0.9,0.1-1.5,0.1c-0.9,0-1.7-0.2-2.3-0.6
			c-0.6-0.4-1.1-0.9-1.4-1.6c-0.3-0.7-0.5-1.5-0.5-2.4c0-0.9,0.1-1.7,0.4-2.4c0.3-0.7,0.7-1.3,1.3-1.7
			C354.8,423.3,355.5,423.1,356.4,423.1z M356.4,423.7c-0.9,0-1.6,0.3-2.2,0.9c-0.6,0.6-0.9,1.5-1,2.6h5.9c0-1.1-0.2-1.9-0.7-2.6
			S357.3,423.7,356.4,423.7z"/>
		<path class="st15" d="M365.3,423.1c1,0,1.7,0.3,2.2,0.8c0.5,0.5,0.7,1.3,0.7,2.4v6h-0.5l-0.1-1.7h0c-0.3,0.5-0.7,1-1.1,1.3
			c-0.5,0.4-1.2,0.5-2.1,0.5c-0.9,0-1.6-0.2-2-0.6s-0.7-1-0.7-1.8c0-0.9,0.4-1.6,1.1-2c0.7-0.5,1.8-0.7,3.2-0.8l1.7-0.1v-0.7
			c0-1-0.2-1.7-0.6-2.1c-0.4-0.4-0.9-0.6-1.7-0.6c-0.5,0-0.9,0.1-1.3,0.2c-0.4,0.1-0.9,0.3-1.3,0.5l-0.2-0.6
			c0.4-0.2,0.9-0.4,1.4-0.5C364.3,423.2,364.8,423.1,365.3,423.1z M367.5,427.6l-1.6,0.1c-1.2,0.1-2.1,0.3-2.7,0.6
			c-0.6,0.4-1,0.9-1,1.7c0,0.6,0.2,1,0.6,1.4s0.9,0.5,1.6,0.5c1.1,0,1.9-0.3,2.4-0.9c0.5-0.6,0.8-1.4,0.8-2.4V427.6z"/>
		<path class="st15" d="M374.5,423.1c0.2,0,0.5,0,0.7,0.1s0.4,0.1,0.6,0.1l-0.1,0.6c-0.4-0.1-0.8-0.2-1.2-0.2c-0.9,0-1.6,0.3-2,1
			c-0.5,0.6-0.7,1.5-0.7,2.6v5h-0.6v-9h0.6l0.1,1.7h0.1c0.2-0.5,0.5-1,1-1.3C373.2,423.3,373.8,423.1,374.5,423.1z"/>
		<path class="st15" d="M55.6,443.6v9H55l-0.1-1.8h0c-0.2,0.5-0.6,1-1.1,1.3c-0.5,0.4-1.2,0.6-2.1,0.6c-2.1,0-3.1-1.1-3.1-3.3v-5.9
			h0.7v5.8c0,0.9,0.2,1.6,0.6,2.1c0.4,0.4,1,0.7,1.9,0.7c1,0,1.8-0.3,2.3-0.9s0.8-1.5,0.8-2.7v-5.1H55.6z"/>
		<path class="st15" d="M62.5,443.5c1,0,1.8,0.3,2.3,0.8c0.5,0.5,0.8,1.4,0.8,2.5v5.9h-0.7v-5.9c0-0.9-0.2-1.6-0.6-2.1
			c-0.4-0.4-1-0.7-1.9-0.7c-1,0-1.8,0.3-2.3,0.9c-0.6,0.6-0.8,1.5-0.8,2.7v5h-0.7v-9h0.5l0.1,1.8h0.1c0.2-0.5,0.6-1,1.1-1.4
			C60.9,443.7,61.6,443.5,62.5,443.5z"/>
		<path class="st15" d="M76.3,443.5c0.8,0,1.4,0.2,1.8,0.5c0.5,0.3,0.8,0.7,1.1,1.2h0.1l0.1-1.5h0.5v9.4c0,1.1-0.3,2-0.9,2.7
			c-0.6,0.7-1.6,1-2.9,1c-0.7,0-1.3-0.1-1.8-0.2c-0.5-0.1-1-0.3-1.4-0.4v-0.7c0.4,0.2,0.9,0.4,1.4,0.5c0.5,0.1,1.1,0.2,1.8,0.2
			c1.1,0,1.9-0.3,2.4-0.8c0.5-0.6,0.7-1.3,0.7-2.3v-0.6c0-0.3,0-0.5,0-0.8c0-0.2,0-0.5,0-0.8h-0.1c-0.5,1.3-1.5,2-3.1,2
			c-1.2,0-2.1-0.4-2.7-1.2s-1-1.9-1-3.4c0-1.5,0.3-2.6,1-3.5C74,443.9,75,443.5,76.3,443.5z M76.3,444.1c-1.1,0-1.9,0.4-2.4,1.1
			s-0.8,1.8-0.8,3.1c0,1.3,0.3,2.3,0.8,2.9c0.5,0.7,1.3,1,2.3,1c0.8,0,1.5-0.2,1.9-0.5c0.4-0.4,0.8-0.8,0.9-1.4s0.3-1.2,0.3-1.8
			v-0.7c0-0.7-0.1-1.4-0.3-1.9c-0.2-0.5-0.5-1-0.9-1.3S77,444.1,76.3,444.1z"/>
		<path class="st15" d="M86.4,443.5c0.2,0,0.5,0,0.7,0.1s0.4,0.1,0.6,0.1l-0.1,0.6c-0.4-0.1-0.8-0.2-1.2-0.2c-0.9,0-1.6,0.3-2,1
			c-0.5,0.6-0.7,1.5-0.7,2.6v5H83v-9h0.6l0.1,1.7h0.1c0.2-0.5,0.5-1,1-1.3C85.1,443.7,85.7,443.5,86.4,443.5z"/>
		<path class="st15" d="M96.3,443.6v9h-0.5l-0.1-1.8h0c-0.2,0.5-0.6,1-1.1,1.3c-0.5,0.4-1.2,0.6-2.1,0.6c-2.1,0-3.1-1.1-3.1-3.3
			v-5.9H90v5.8c0,0.9,0.2,1.6,0.6,2.1c0.4,0.4,1,0.7,1.9,0.7c1,0,1.8-0.3,2.3-0.9s0.8-1.5,0.8-2.7v-5.1H96.3z"/>
		<path class="st15" d="M103.2,443.5c1.2,0,2.1,0.4,2.7,1.2c0.6,0.8,0.9,1.9,0.9,3.4c0,1.5-0.3,2.7-1,3.5c-0.7,0.8-1.6,1.2-2.8,1.2
			c-0.9,0-1.5-0.2-2-0.6c-0.5-0.4-0.9-0.8-1.1-1.4h0c0,0.3,0,0.7,0,1c0,0.4,0,0.7,0,1v3.7h-0.6v-13h0.5l0.1,2h0
			c0.1-0.4,0.3-0.7,0.6-1c0.3-0.3,0.6-0.6,1.1-0.8C102.1,443.6,102.6,443.5,103.2,443.5z M103.2,444.1c-1.1,0-1.8,0.3-2.4,1
			c-0.5,0.7-0.8,1.7-0.8,3v0.1c0,1.4,0.3,2.4,0.8,3.1c0.5,0.7,1.3,1,2.3,1c1,0,1.8-0.4,2.3-1.1c0.5-0.7,0.8-1.7,0.8-3.1
			C106.2,445.4,105.2,444.1,103.2,444.1z"/>
		<path class="st15" d="M116.7,448.1c0,0.9-0.1,1.7-0.4,2.4c-0.3,0.7-0.7,1.3-1.3,1.7c-0.6,0.4-1.3,0.6-2.2,0.6
			c-0.9,0-1.6-0.2-2.2-0.6c-0.6-0.4-1-0.9-1.3-1.6c-0.3-0.7-0.5-1.5-0.5-2.4c0-1.4,0.4-2.6,1.1-3.4s1.7-1.3,2.9-1.3
			c0.9,0,1.6,0.2,2.2,0.6c0.6,0.4,1,1,1.3,1.7C116.6,446.5,116.7,447.3,116.7,448.1z M109.5,448.1c0,1.2,0.3,2.2,0.8,2.9
			c0.5,0.8,1.3,1.1,2.4,1.1c0.8,0,1.4-0.2,1.9-0.5c0.5-0.3,0.8-0.8,1.1-1.4c0.2-0.6,0.3-1.3,0.3-2.1c0-0.8-0.1-1.5-0.3-2.1
			c-0.2-0.6-0.6-1.1-1-1.5c-0.5-0.4-1.1-0.5-1.9-0.5c-1.1,0-1.9,0.4-2.5,1.1C109.8,445.9,109.5,446.9,109.5,448.1z"/>
		<path class="st15" d="M126.7,443.5c1,0,1.7,0.3,2.2,0.8c0.5,0.5,0.7,1.3,0.7,2.4v6h-0.5L129,451h0c-0.3,0.5-0.7,1-1.1,1.3
			c-0.5,0.4-1.2,0.5-2.1,0.5c-0.9,0-1.6-0.2-2-0.6s-0.7-1-0.7-1.8c0-0.9,0.4-1.6,1.1-2c0.7-0.5,1.8-0.7,3.2-0.8l1.7-0.1v-0.7
			c0-1-0.2-1.7-0.6-2.1c-0.4-0.4-0.9-0.6-1.7-0.6c-0.5,0-0.9,0.1-1.3,0.2c-0.4,0.1-0.9,0.3-1.3,0.5l-0.2-0.6
			c0.4-0.2,0.9-0.4,1.4-0.5C125.7,443.6,126.2,443.5,126.7,443.5z M129,448l-1.6,0.1c-1.2,0.1-2.1,0.3-2.7,0.6c-0.6,0.4-1,0.9-1,1.7
			c0,0.6,0.2,1,0.6,1.4s0.9,0.5,1.6,0.5c1.1,0,1.9-0.3,2.4-0.9c0.5-0.6,0.8-1.4,0.8-2.4V448z"/>
		<path class="st15" d="M133.2,452.7h-0.6v-12.9h0.6V452.7z"/>
		<path class="st15" d="M146.9,456.6v-4c0-0.3,0-0.6,0-1s0-0.7,0-1h-0.1c-0.2,0.6-0.6,1.1-1.1,1.5c-0.6,0.4-1.3,0.6-2.1,0.6
			c-1.2,0-2.1-0.4-2.7-1.2c-0.6-0.8-0.9-1.9-0.9-3.5c0-0.9,0.1-1.7,0.4-2.4c0.3-0.7,0.7-1.3,1.3-1.7c0.6-0.4,1.3-0.6,2.2-0.6
			c0.8,0,1.4,0.2,1.9,0.5c0.5,0.4,0.8,0.8,1.1,1.3h0l0.1-1.7h0.5v13H146.9z M143.8,452.2c1.1,0,1.9-0.4,2.4-1.1
			c0.5-0.7,0.8-1.7,0.8-3V448c0-1.3-0.2-2.3-0.7-2.9c-0.5-0.7-1.2-1-2.3-1c-1.1,0-1.9,0.4-2.4,1.1c-0.5,0.7-0.8,1.7-0.8,3
			c0,1.3,0.2,2.3,0.7,3S142.8,452.2,143.8,452.2z"/>
		<path class="st15" d="M157.5,443.6v9H157l-0.1-1.8h0c-0.2,0.5-0.6,1-1.1,1.3c-0.5,0.4-1.2,0.6-2.1,0.6c-2.1,0-3.1-1.1-3.1-3.3
			v-5.9h0.7v5.8c0,0.9,0.2,1.6,0.6,2.1c0.4,0.4,1,0.7,1.9,0.7c1,0,1.8-0.3,2.3-0.9s0.8-1.5,0.8-2.7v-5.1H157.5z"/>
		<path class="st15" d="M163.9,443.5c0.8,0,1.4,0.2,1.9,0.6c0.5,0.4,0.9,0.9,1.1,1.5s0.4,1.3,0.4,2.1v0.5h-6.6c0,1.3,0.3,2.3,0.9,3
			s1.4,1,2.6,1c0.6,0,1,0,1.4-0.1c0.4-0.1,0.9-0.2,1.4-0.5v0.6c-0.4,0.2-0.9,0.3-1.3,0.4s-0.9,0.1-1.5,0.1c-0.9,0-1.7-0.2-2.3-0.6
			c-0.6-0.4-1.1-0.9-1.4-1.6c-0.3-0.7-0.5-1.5-0.5-2.4c0-0.9,0.1-1.7,0.4-2.4c0.3-0.7,0.7-1.3,1.3-1.7
			C162.4,443.7,163.1,443.5,163.9,443.5z M163.9,444.1c-0.9,0-1.6,0.3-2.2,0.9c-0.6,0.6-0.9,1.5-1,2.6h5.9c0-1.1-0.2-1.9-0.7-2.6
			S164.8,444.1,163.9,444.1z"/>
		<path class="st15" d="M178.1,443.5c1.2,0,2.1,0.4,2.7,1.2c0.6,0.8,0.9,1.9,0.9,3.4c0,1.5-0.3,2.7-1,3.5c-0.7,0.8-1.6,1.2-2.8,1.2
			c-0.9,0-1.5-0.2-2-0.6c-0.5-0.4-0.9-0.8-1.1-1.4h0c0,0.3,0,0.7,0,1c0,0.4,0,0.7,0,1v3.7h-0.6v-13h0.5l0.1,2h0
			c0.1-0.4,0.3-0.7,0.6-1c0.3-0.3,0.6-0.6,1.1-0.8C177,443.6,177.5,443.5,178.1,443.5z M178.1,444.1c-1.1,0-1.8,0.3-2.4,1
			c-0.5,0.7-0.8,1.7-0.8,3v0.1c0,1.4,0.3,2.4,0.8,3.1c0.5,0.7,1.3,1,2.3,1c1,0,1.8-0.4,2.3-1.1c0.5-0.7,0.8-1.7,0.8-3.1
			C181.1,445.4,180.1,444.1,178.1,444.1z"/>
		<path class="st15" d="M187.7,443.5c0.8,0,1.4,0.2,1.9,0.6c0.5,0.4,0.9,0.9,1.1,1.5s0.4,1.3,0.4,2.1v0.5h-6.6c0,1.3,0.3,2.3,0.9,3
			s1.4,1,2.6,1c0.6,0,1,0,1.4-0.1c0.4-0.1,0.9-0.2,1.4-0.5v0.6c-0.4,0.2-0.9,0.3-1.3,0.4s-0.9,0.1-1.5,0.1c-0.9,0-1.7-0.2-2.3-0.6
			c-0.6-0.4-1.1-0.9-1.4-1.6c-0.3-0.7-0.5-1.5-0.5-2.4c0-0.9,0.1-1.7,0.4-2.4c0.3-0.7,0.7-1.3,1.3-1.7
			C186.1,443.7,186.8,443.5,187.7,443.5z M187.7,444.1c-0.9,0-1.6,0.3-2.2,0.9c-0.6,0.6-0.9,1.5-1,2.6h5.9c0-1.1-0.2-1.9-0.7-2.6
			S188.6,444.1,187.7,444.1z"/>
		<path class="st15" d="M197,443.5c0.2,0,0.5,0,0.7,0.1s0.4,0.1,0.6,0.1l-0.1,0.6c-0.4-0.1-0.8-0.2-1.2-0.2c-0.9,0-1.6,0.3-2,1
			c-0.5,0.6-0.7,1.5-0.7,2.6v5h-0.6v-9h0.6l0.1,1.7h0.1c0.2-0.5,0.5-1,1-1.3C195.7,443.7,196.3,443.5,197,443.5z"/>
		<path class="st15" d="M202.3,452.2c0.3,0,0.5,0,0.7-0.1c0.2,0,0.4-0.1,0.6-0.1v0.6c-0.2,0.1-0.4,0.1-0.6,0.2
			c-0.2,0-0.5,0.1-0.8,0.1c-0.8,0-1.3-0.2-1.7-0.7c-0.3-0.4-0.5-1.1-0.5-1.9v-6h-1.4v-0.4l1.4-0.2l0.2-2.2h0.5v2.2h2.9v0.6h-2.9v5.9
			c0,0.7,0.1,1.2,0.3,1.5C201.3,452,201.7,452.2,202.3,452.2z"/>
		<path class="st15" d="M209,443.5c0.8,0,1.4,0.2,1.9,0.6c0.5,0.4,0.9,0.9,1.1,1.5s0.4,1.3,0.4,2.1v0.5h-6.6c0,1.3,0.3,2.3,0.9,3
			s1.4,1,2.6,1c0.6,0,1,0,1.4-0.1c0.4-0.1,0.9-0.2,1.4-0.5v0.6c-0.4,0.2-0.9,0.3-1.3,0.4s-0.9,0.1-1.5,0.1c-0.9,0-1.7-0.2-2.3-0.6
			c-0.6-0.4-1.1-0.9-1.4-1.6c-0.3-0.7-0.5-1.5-0.5-2.4c0-0.9,0.1-1.7,0.4-2.4c0.3-0.7,0.7-1.3,1.3-1.7
			C207.4,443.7,208.1,443.5,209,443.5z M209,444.1c-0.9,0-1.6,0.3-2.2,0.9c-0.6,0.6-0.9,1.5-1,2.6h5.9c0-1.1-0.2-1.9-0.7-2.6
			S209.9,444.1,209,444.1z"/>
		<path class="st15" d="M218.7,443.5c1,0,1.8,0.3,2.3,0.8c0.5,0.5,0.8,1.4,0.8,2.5v5.9h-0.7v-5.9c0-0.9-0.2-1.6-0.6-2.1
			c-0.4-0.4-1-0.7-1.9-0.7c-1,0-1.8,0.3-2.3,0.9c-0.6,0.6-0.8,1.5-0.8,2.7v5h-0.7v-9h0.5l0.1,1.8h0.1c0.2-0.5,0.6-1,1.1-1.4
			C217.2,443.7,217.9,443.5,218.7,443.5z"/>
		<path class="st15" d="M228.2,443.5c0.8,0,1.4,0.2,1.9,0.6c0.5,0.4,0.9,0.9,1.1,1.5s0.4,1.3,0.4,2.1v0.5h-6.6c0,1.3,0.3,2.3,0.9,3
			s1.4,1,2.6,1c0.6,0,1,0,1.4-0.1c0.4-0.1,0.9-0.2,1.4-0.5v0.6c-0.4,0.2-0.9,0.3-1.3,0.4s-0.9,0.1-1.5,0.1c-0.9,0-1.7-0.2-2.3-0.6
			c-0.6-0.4-1.1-0.9-1.4-1.6c-0.3-0.7-0.5-1.5-0.5-2.4c0-0.9,0.1-1.7,0.4-2.4c0.3-0.7,0.7-1.3,1.3-1.7
			C226.6,443.7,227.3,443.5,228.2,443.5z M228.2,444.1c-0.9,0-1.6,0.3-2.2,0.9c-0.6,0.6-0.9,1.5-1,2.6h5.9c0-1.1-0.2-1.9-0.7-2.6
			S229.1,444.1,228.2,444.1z"/>
		<path class="st15" d="M237.7,452.8c-0.9,0-1.7-0.2-2.3-0.6c-0.6-0.4-1.1-0.9-1.4-1.6c-0.3-0.7-0.5-1.5-0.5-2.4
			c0-1,0.2-1.8,0.5-2.5s0.9-1.3,1.5-1.6c0.7-0.4,1.4-0.6,2.3-0.6c0.4,0,0.8,0,1.2,0.1c0.4,0.1,0.7,0.2,1,0.3l-0.2,0.6
			c-0.3-0.1-0.7-0.3-1-0.3c-0.3-0.1-0.7-0.1-1-0.1c-0.8,0-1.4,0.2-2,0.5s-1,0.8-1.3,1.4c-0.3,0.6-0.4,1.3-0.4,2.2
			c0,0.8,0.1,1.5,0.4,2.1c0.2,0.6,0.6,1.1,1.1,1.4c0.5,0.4,1.2,0.5,2,0.5c0.4,0,0.8,0,1.2-0.1c0.4-0.1,0.8-0.2,1.1-0.3v0.6
			c-0.3,0.1-0.6,0.2-1,0.3S238.1,452.8,237.7,452.8z"/>
		<path class="st15" d="M245.5,443.5c0.8,0,1.4,0.2,1.9,0.6c0.5,0.4,0.9,0.9,1.1,1.5s0.4,1.3,0.4,2.1v0.5h-6.6c0,1.3,0.3,2.3,0.9,3
			s1.4,1,2.6,1c0.6,0,1,0,1.4-0.1c0.4-0.1,0.9-0.2,1.4-0.5v0.6c-0.4,0.2-0.9,0.3-1.3,0.4s-0.9,0.1-1.5,0.1c-0.9,0-1.7-0.2-2.3-0.6
			c-0.6-0.4-1.1-0.9-1.4-1.6c-0.3-0.7-0.5-1.5-0.5-2.4c0-0.9,0.1-1.7,0.4-2.4c0.3-0.7,0.7-1.3,1.3-1.7
			C243.9,443.7,244.6,443.5,245.5,443.5z M245.5,444.1c-0.9,0-1.6,0.3-2.2,0.9c-0.6,0.6-0.9,1.5-1,2.6h5.9c0-1.1-0.2-1.9-0.7-2.6
			S246.4,444.1,245.5,444.1z"/>
		<path class="st15" d="M254.8,443.5c0.2,0,0.5,0,0.7,0.1s0.4,0.1,0.6,0.1l-0.1,0.6c-0.4-0.1-0.8-0.2-1.2-0.2c-0.9,0-1.6,0.3-2,1
			c-0.5,0.6-0.7,1.5-0.7,2.6v5h-0.6v-9h0.6l0.1,1.7h0.1c0.2-0.5,0.5-1,1-1.3C253.5,443.7,254.1,443.5,254.8,443.5z"/>
		<path class="st15" d="M260.6,443.5c1,0,1.7,0.3,2.2,0.8c0.5,0.5,0.7,1.3,0.7,2.4v6H263l-0.1-1.7h0c-0.3,0.5-0.7,1-1.1,1.3
			c-0.5,0.4-1.2,0.5-2.1,0.5c-0.9,0-1.6-0.2-2-0.6s-0.7-1-0.7-1.8c0-0.9,0.4-1.6,1.1-2c0.7-0.5,1.8-0.7,3.2-0.8l1.7-0.1v-0.7
			c0-1-0.2-1.7-0.6-2.1c-0.4-0.4-0.9-0.6-1.7-0.6c-0.5,0-0.9,0.1-1.3,0.2c-0.4,0.1-0.9,0.3-1.3,0.5l-0.2-0.6
			c0.4-0.2,0.9-0.4,1.4-0.5C259.6,443.6,260.1,443.5,260.6,443.5z M262.8,448l-1.6,0.1c-1.2,0.1-2.1,0.3-2.7,0.6
			c-0.6,0.4-1,0.9-1,1.7c0,0.6,0.2,1,0.6,1.4s0.9,0.5,1.6,0.5c1.1,0,1.9-0.3,2.4-0.9c0.5-0.6,0.8-1.4,0.8-2.4V448z M262.8,439.6v0.1
			c-0.2,0.2-0.4,0.5-0.7,0.8c-0.3,0.3-0.6,0.6-0.9,0.9c-0.3,0.3-0.6,0.6-0.9,0.8h-0.5v-0.1c0.2-0.2,0.5-0.5,0.8-0.8s0.6-0.6,0.8-0.9
			s0.5-0.6,0.6-0.9H262.8z"/>
		<path class="st15" d="M270.3,443.5c1,0,1.8,0.3,2.3,0.8c0.5,0.5,0.8,1.4,0.8,2.5v5.9h-0.7v-5.9c0-0.9-0.2-1.6-0.6-2.1
			c-0.4-0.4-1-0.7-1.9-0.7c-1,0-1.8,0.3-2.3,0.9c-0.6,0.6-0.8,1.5-0.8,2.7v5h-0.7v-9h0.5l0.1,1.8h0.1c0.2-0.5,0.6-1,1.1-1.4
			C268.7,443.7,269.4,443.5,270.3,443.5z"/>
		<path class="st15" d="M283,452.2c0.3,0,0.5,0,0.7-0.1c0.2,0,0.4-0.1,0.6-0.1v0.6c-0.2,0.1-0.4,0.1-0.6,0.2c-0.2,0-0.5,0.1-0.8,0.1
			c-0.8,0-1.3-0.2-1.7-0.7c-0.3-0.4-0.5-1.1-0.5-1.9v-6h-1.4v-0.4l1.4-0.2l0.2-2.2h0.5v2.2h2.9v0.6h-2.9v5.9c0,0.7,0.1,1.2,0.3,1.5
			C282,452,282.4,452.2,283,452.2z"/>
		<path class="st15" d="M293.1,443.6v9h-0.5l-0.1-1.8h0c-0.2,0.5-0.6,1-1.1,1.3c-0.5,0.4-1.2,0.6-2.1,0.6c-2.1,0-3.1-1.1-3.1-3.3
			v-5.9h0.7v5.8c0,0.9,0.2,1.6,0.6,2.1c0.4,0.4,1,0.7,1.9,0.7c1,0,1.8-0.3,2.3-0.9s0.8-1.5,0.8-2.7v-5.1H293.1z"/>
		<path class="st15" d="M301.7,450.3c0,0.8-0.3,1.4-0.9,1.8c-0.6,0.4-1.4,0.7-2.6,0.7c-0.6,0-1.2-0.1-1.7-0.2s-0.9-0.2-1.2-0.4v-0.7
			c0.4,0.2,0.9,0.4,1.4,0.5c0.5,0.1,1,0.2,1.5,0.2c1,0,1.7-0.2,2.1-0.5c0.4-0.3,0.7-0.8,0.7-1.4c0-0.4-0.1-0.7-0.3-1
			c-0.2-0.2-0.5-0.5-0.9-0.6c-0.4-0.2-0.9-0.3-1.4-0.5c-0.5-0.2-1-0.4-1.5-0.5c-0.4-0.2-0.8-0.4-1-0.7c-0.2-0.3-0.4-0.7-0.4-1.3
			c0-0.7,0.3-1.3,0.9-1.7s1.3-0.6,2.3-0.6c0.5,0,1,0.1,1.5,0.2c0.5,0.1,0.9,0.2,1.3,0.4l-0.3,0.6c-0.3-0.2-0.7-0.3-1.2-0.4
			s-0.9-0.1-1.4-0.1c-0.8,0-1.4,0.1-1.8,0.4c-0.4,0.3-0.7,0.7-0.7,1.3c0,0.4,0.1,0.7,0.3,1s0.5,0.4,0.9,0.6s0.8,0.3,1.3,0.5
			c0.5,0.2,1,0.3,1.4,0.5c0.5,0.2,0.8,0.4,1.1,0.8S301.7,449.8,301.7,450.3z"/>
		<path class="st15" d="M309.1,452.7h-0.6v-12.9h0.6V452.7z"/>
		<path class="st15" d="M312.5,440.3c0.2,0,0.4,0.1,0.4,0.2s0.1,0.3,0.1,0.4c0,0.2,0,0.3-0.1,0.4s-0.2,0.2-0.4,0.2
			c-0.2,0-0.3-0.1-0.4-0.2s-0.1-0.3-0.1-0.4c0-0.2,0-0.3,0.1-0.4S312.3,440.3,312.5,440.3z M312.8,443.6v9h-0.7v-9H312.8z"/>
		<path class="st15" d="M321.4,450.3c0,0.8-0.3,1.4-0.9,1.8c-0.6,0.4-1.4,0.7-2.6,0.7c-0.6,0-1.2-0.1-1.7-0.2s-0.9-0.2-1.2-0.4v-0.7
			c0.4,0.2,0.9,0.4,1.4,0.5c0.5,0.1,1,0.2,1.5,0.2c1,0,1.7-0.2,2.1-0.5c0.4-0.3,0.7-0.8,0.7-1.4c0-0.4-0.1-0.7-0.3-1
			c-0.2-0.2-0.5-0.5-0.9-0.6c-0.4-0.2-0.9-0.3-1.4-0.5c-0.5-0.2-1-0.4-1.5-0.5c-0.4-0.2-0.8-0.4-1-0.7c-0.2-0.3-0.4-0.7-0.4-1.3
			c0-0.7,0.3-1.3,0.9-1.7s1.3-0.6,2.3-0.6c0.5,0,1,0.1,1.5,0.2c0.5,0.1,0.9,0.2,1.3,0.4l-0.3,0.6c-0.3-0.2-0.7-0.3-1.2-0.4
			s-0.9-0.1-1.4-0.1c-0.8,0-1.4,0.1-1.8,0.4c-0.4,0.3-0.7,0.7-0.7,1.3c0,0.4,0.1,0.7,0.3,1s0.5,0.4,0.9,0.6s0.8,0.3,1.3,0.5
			c0.5,0.2,1,0.3,1.4,0.5c0.5,0.2,0.8,0.4,1.1,0.8S321.4,449.8,321.4,450.3z"/>
		<path class="st15" d="M326,452.2c0.3,0,0.5,0,0.7-0.1c0.2,0,0.4-0.1,0.6-0.1v0.6c-0.2,0.1-0.4,0.1-0.6,0.2c-0.2,0-0.5,0.1-0.8,0.1
			c-0.8,0-1.3-0.2-1.7-0.7c-0.3-0.4-0.5-1.1-0.5-1.9v-6h-1.4v-0.4l1.4-0.2l0.2-2.2h0.5v2.2h2.9v0.6h-2.9v5.9c0,0.7,0.1,1.2,0.3,1.5
			C325,452,325.4,452.2,326,452.2z"/>
		<path class="st15" d="M332.3,443.5c1,0,1.7,0.3,2.2,0.8c0.5,0.5,0.7,1.3,0.7,2.4v6h-0.5l-0.1-1.7h0c-0.3,0.5-0.7,1-1.1,1.3
			c-0.5,0.4-1.2,0.5-2.1,0.5c-0.9,0-1.6-0.2-2-0.6s-0.7-1-0.7-1.8c0-0.9,0.4-1.6,1.1-2c0.7-0.5,1.8-0.7,3.2-0.8l1.7-0.1v-0.7
			c0-1-0.2-1.7-0.6-2.1c-0.4-0.4-0.9-0.6-1.7-0.6c-0.5,0-0.9,0.1-1.3,0.2c-0.4,0.1-0.9,0.3-1.3,0.5l-0.2-0.6
			c0.4-0.2,0.9-0.4,1.4-0.5C331.3,443.6,331.8,443.5,332.3,443.5z M334.6,448l-1.6,0.1c-1.2,0.1-2.1,0.3-2.7,0.6
			c-0.6,0.4-1,0.9-1,1.7c0,0.6,0.2,1,0.6,1.4s0.9,0.5,1.6,0.5c1.1,0,1.9-0.3,2.4-0.9c0.5-0.6,0.8-1.4,0.8-2.4V448z"/>
		<path class="st15" d="M343.7,450.3c0,0.8-0.3,1.4-0.9,1.8c-0.6,0.4-1.4,0.7-2.6,0.7c-0.6,0-1.2-0.1-1.7-0.2s-0.9-0.2-1.2-0.4v-0.7
			c0.4,0.2,0.9,0.4,1.4,0.5c0.5,0.1,1,0.2,1.5,0.2c1,0,1.7-0.2,2.1-0.5c0.4-0.3,0.7-0.8,0.7-1.4c0-0.4-0.1-0.7-0.3-1
			c-0.2-0.2-0.5-0.5-0.9-0.6c-0.4-0.2-0.9-0.3-1.4-0.5c-0.5-0.2-1-0.4-1.5-0.5c-0.4-0.2-0.8-0.4-1-0.7c-0.2-0.3-0.4-0.7-0.4-1.3
			c0-0.7,0.3-1.3,0.9-1.7s1.3-0.6,2.3-0.6c0.5,0,1,0.1,1.5,0.2c0.5,0.1,0.9,0.2,1.3,0.4l-0.3,0.6c-0.3-0.2-0.7-0.3-1.2-0.4
			s-0.9-0.1-1.4-0.1c-0.8,0-1.4,0.1-1.8,0.4c-0.4,0.3-0.7,0.7-0.7,1.3c0,0.4,0.1,0.7,0.3,1s0.5,0.4,0.9,0.6s0.8,0.3,1.3,0.5
			c0.5,0.2,1,0.3,1.4,0.5c0.5,0.2,0.8,0.4,1.1,0.8S343.7,449.8,343.7,450.3z"/>
		<path class="st15" d="M345.9,452.2c0-0.2,0-0.4,0.1-0.5s0.2-0.2,0.4-0.2c0.2,0,0.4,0.1,0.5,0.2c0.1,0.1,0.1,0.3,0.1,0.5
			c0,0.2,0,0.3-0.1,0.5c-0.1,0.1-0.2,0.2-0.5,0.2c-0.2,0-0.3-0.1-0.4-0.2S345.9,452.4,345.9,452.2z"/>
	</g>
	<g>
		<path class="st1" d="M79.3,398.2l-1.4-3.7h-5l-1.4,3.7h-2l4.9-12.9h2l4.9,12.9H79.3z M77.4,392.8l-1.3-3.6c0-0.1-0.1-0.3-0.2-0.6
			c-0.1-0.3-0.2-0.5-0.3-0.8c-0.1-0.3-0.1-0.5-0.2-0.7c-0.1,0.4-0.2,0.8-0.3,1.2c-0.1,0.4-0.2,0.7-0.3,0.9l-1.3,3.6H77.4z"/>
		<path class="st1" d="M91.2,388.5v9.7h-1.5l-0.3-1.3h-0.1c-0.3,0.5-0.7,0.9-1.3,1.1c-0.6,0.2-1.1,0.4-1.7,0.4c-1.1,0-2-0.3-2.6-0.8
			c-0.6-0.6-0.9-1.5-0.9-2.7v-6.4h1.9v6.1c0,0.8,0.2,1.3,0.5,1.7c0.3,0.4,0.8,0.6,1.5,0.6c1,0,1.7-0.3,2.1-0.9
			c0.4-0.6,0.6-1.4,0.6-2.5v-4.9H91.2z M89.8,384.4v0.2c-0.2,0.2-0.4,0.5-0.8,0.8c-0.3,0.3-0.7,0.7-1,1c-0.4,0.3-0.7,0.6-1,0.8h-1.3
			V387c0.2-0.2,0.4-0.5,0.6-0.8c0.2-0.3,0.4-0.6,0.7-1c0.2-0.3,0.4-0.6,0.5-0.9H89.8z"/>
		<path class="st1" d="M99.1,388.3c1.1,0,2,0.3,2.6,0.8c0.6,0.6,0.9,1.5,0.9,2.7v6.3h-1.9v-6c0-1.5-0.7-2.3-2-2.3
			c-1,0-1.7,0.3-2,0.9c-0.4,0.6-0.6,1.4-0.6,2.5v4.9h-1.9v-9.7h1.5l0.3,1.3H96c0.3-0.5,0.7-0.9,1.3-1.1
			C97.9,388.4,98.5,388.3,99.1,388.3z"/>
		<path class="st1" d="M115.1,388.3c1.1,0,2,0.3,2.6,0.8c0.6,0.6,0.9,1.5,0.9,2.7v6.3h-1.9v-6c0-1.5-0.7-2.3-2-2.3
			c-1,0-1.7,0.3-2,0.9c-0.4,0.6-0.6,1.4-0.6,2.5v4.9h-1.9v-9.7h1.5l0.3,1.3h0.1c0.3-0.5,0.7-0.9,1.3-1.1
			C113.9,388.4,114.5,388.3,115.1,388.3z"/>
		<path class="st1" d="M130.1,393.3c0,1.6-0.4,2.9-1.2,3.7c-0.8,0.9-1.9,1.3-3.3,1.3c-0.9,0-1.7-0.2-2.3-0.6c-0.7-0.4-1.2-1-1.6-1.7
			c-0.4-0.8-0.6-1.7-0.6-2.7c0-1.6,0.4-2.8,1.2-3.7c0.8-0.9,1.9-1.3,3.3-1.3c0.9,0,1.7,0.2,2.3,0.6c0.7,0.4,1.2,1,1.6,1.7
			C129.9,391.3,130.1,392.2,130.1,393.3z M122.9,393.3c0,1.1,0.2,1.9,0.6,2.6c0.4,0.6,1.1,0.9,2,0.9c0.9,0,1.6-0.3,2-0.9
			c0.4-0.6,0.6-1.5,0.6-2.6c0-1.1-0.2-2-0.6-2.5s-1.1-0.9-2-0.9c-0.9,0-1.6,0.3-2,0.9C123.1,391.3,122.9,392.2,122.9,393.3z"/>
		<path class="st1" d="M140.6,396.8c0.5,0,1-0.1,1.5-0.2v1.4c-0.2,0.1-0.5,0.2-0.8,0.2c-0.3,0.1-0.7,0.1-1,0.1c-0.5,0-1-0.1-1.4-0.3
			c-0.4-0.2-0.8-0.5-1.1-0.9c-0.3-0.4-0.4-1.1-0.4-1.9v-5.4H136V389l1.4-0.7l0.7-2.1h1.2v2.2h2.8v1.5h-2.8v5.3
			c0,0.5,0.1,0.9,0.4,1.2C139.9,396.7,140.2,396.8,140.6,396.8z"/>
		<path class="st1" d="M145,384.8c0.3,0,0.5,0.1,0.8,0.3c0.2,0.2,0.3,0.4,0.3,0.8c0,0.4-0.1,0.7-0.3,0.8c-0.2,0.2-0.5,0.3-0.8,0.3
			c-0.3,0-0.6-0.1-0.8-0.3c-0.2-0.2-0.3-0.5-0.3-0.8c0-0.4,0.1-0.7,0.3-0.8C144.5,384.8,144.7,384.8,145,384.8z M146,388.5v9.7h-1.9
			v-9.7H146z"/>
		<path class="st1" d="M152.8,388.3c1.3,0,2.3,0.4,3,1.2s1.1,1.9,1.1,3.2v1h-6.5c0,1,0.3,1.8,0.8,2.3c0.5,0.5,1.2,0.8,2.1,0.8
			c0.6,0,1.2-0.1,1.7-0.2c0.5-0.1,1-0.3,1.5-0.5v1.6c-0.5,0.2-1,0.4-1.5,0.5c-0.5,0.1-1.1,0.2-1.8,0.2c-0.9,0-1.8-0.2-2.5-0.6
			c-0.7-0.4-1.3-0.9-1.7-1.7c-0.4-0.7-0.6-1.6-0.6-2.7s0.2-2,0.5-2.8s0.9-1.3,1.5-1.7C151.1,388.5,151.9,388.3,152.8,388.3z
			 M152.8,389.7c-0.7,0-1.2,0.2-1.6,0.7c-0.4,0.4-0.7,1.1-0.7,1.9h4.6c0-0.8-0.2-1.4-0.5-1.8C154.1,390,153.5,389.7,152.8,389.7z"/>
		<path class="st1" d="M164.2,388.3c1.1,0,2,0.3,2.6,0.8c0.6,0.6,0.9,1.5,0.9,2.7v6.3h-1.9v-6c0-1.5-0.7-2.3-2-2.3
			c-1,0-1.7,0.3-2,0.9c-0.4,0.6-0.6,1.4-0.6,2.5v4.9h-1.9v-9.7h1.5l0.3,1.3h0.1c0.3-0.5,0.7-0.9,1.3-1.1
			C163,388.4,163.5,388.3,164.2,388.3z"/>
		<path class="st1" d="M174.4,388.3c1.3,0,2.3,0.4,3,1.2s1.1,1.9,1.1,3.2v1H172c0,1,0.3,1.8,0.8,2.3c0.5,0.5,1.2,0.8,2.1,0.8
			c0.6,0,1.2-0.1,1.7-0.2c0.5-0.1,1-0.3,1.5-0.5v1.6c-0.5,0.2-1,0.4-1.5,0.5c-0.5,0.1-1.1,0.2-1.8,0.2c-0.9,0-1.8-0.2-2.5-0.6
			c-0.7-0.4-1.3-0.9-1.7-1.7c-0.4-0.7-0.6-1.6-0.6-2.7s0.2-2,0.5-2.8s0.9-1.3,1.5-1.7C172.8,388.5,173.5,388.3,174.4,388.3z
			 M174.4,389.7c-0.7,0-1.2,0.2-1.6,0.7c-0.4,0.4-0.7,1.1-0.7,1.9h4.6c0-0.8-0.2-1.4-0.5-1.8C175.7,390,175.1,389.7,174.4,389.7z"/>
		<path class="st1" d="M187.3,395.4c0,1-0.3,1.7-1,2.2s-1.7,0.7-2.9,0.7c-0.7,0-1.3,0-1.8-0.1c-0.5-0.1-0.9-0.2-1.3-0.5v-1.7
			c0.4,0.2,0.9,0.4,1.5,0.5s1.1,0.2,1.7,0.2c0.7,0,1.2-0.1,1.6-0.3c0.3-0.2,0.5-0.5,0.5-0.9c0-0.2-0.1-0.4-0.2-0.6s-0.3-0.4-0.7-0.5
			c-0.3-0.2-0.8-0.4-1.4-0.6c-0.6-0.2-1.1-0.5-1.6-0.7c-0.4-0.3-0.8-0.6-1-0.9c-0.2-0.3-0.3-0.8-0.3-1.3c0-0.8,0.3-1.5,1-1.9
			c0.7-0.5,1.6-0.7,2.7-0.7c0.6,0,1.1,0.1,1.7,0.2s1,0.3,1.5,0.5l-0.6,1.5c-0.4-0.2-0.9-0.3-1.3-0.5c-0.4-0.1-0.9-0.2-1.4-0.2
			c-1.2,0-1.8,0.3-1.8,1c0,0.2,0.1,0.4,0.2,0.6s0.4,0.3,0.7,0.5c0.3,0.2,0.8,0.4,1.4,0.6c0.6,0.2,1.1,0.5,1.5,0.7
			c0.4,0.2,0.8,0.5,1,0.9C187.2,394.5,187.3,394.9,187.3,395.4z"/>
		<path class="st1" d="M197.6,388.3c0.6,0,1.2,0.1,1.7,0.4c0.5,0.2,0.9,0.6,1.3,1.1h0.1l0.2-1.3h1.5v9.8c0,2.8-1.5,4.2-4.5,4.2
			c-0.7,0-1.3,0-1.9-0.1s-1.1-0.2-1.6-0.5v-1.7c0.5,0.3,1.1,0.4,1.7,0.6s1.3,0.2,2,0.2c0.8,0,1.4-0.2,1.8-0.7
			c0.4-0.5,0.7-1.1,0.7-1.9v-0.3c0-0.2,0-0.4,0-0.6c0-0.3,0-0.4,0-0.6h-0.1c-0.3,0.5-0.7,0.9-1.2,1.1c-0.5,0.2-1,0.4-1.7,0.4
			c-1.2,0-2.2-0.4-2.9-1.3c-0.7-0.9-1-2.1-1-3.7c0-1.6,0.3-2.8,1-3.7C195.4,388.7,196.4,388.3,197.6,388.3z M198,389.9
			c-0.8,0-1.3,0.3-1.7,0.9c-0.4,0.6-0.6,1.5-0.6,2.6c0,1.1,0.2,2,0.6,2.6c0.4,0.6,1,0.9,1.8,0.9c0.9,0,1.5-0.2,2-0.7
			s0.6-1.3,0.6-2.4v-0.4c0-1.2-0.2-2.1-0.6-2.7S198.9,389.9,198,389.9z"/>
		<path class="st1" d="M210.2,388.3c0.4,0,0.7,0,1.1,0.1l-0.2,1.8c-0.3-0.1-0.6-0.1-1-0.1c-0.5,0-0.9,0.1-1.4,0.4
			c-0.4,0.2-0.8,0.6-1,1c-0.3,0.5-0.4,1-0.4,1.6v5.1h-1.9v-9.7h1.5l0.3,1.7h0.1c0.3-0.5,0.7-1,1.2-1.3
			C209,388.5,209.6,388.3,210.2,388.3z"/>
		<path class="st1" d="M221.4,388.5v9.7h-1.5l-0.3-1.3h-0.1c-0.3,0.5-0.7,0.9-1.3,1.1c-0.6,0.2-1.1,0.4-1.7,0.4
			c-1.1,0-2-0.3-2.6-0.8c-0.6-0.6-0.9-1.5-0.9-2.7v-6.4h1.9v6.1c0,0.8,0.2,1.3,0.5,1.7c0.3,0.4,0.8,0.6,1.5,0.6c1,0,1.7-0.3,2.1-0.9
			c0.4-0.6,0.6-1.4,0.6-2.5v-4.9H221.4z"/>
		<path class="st1" d="M229.3,388.3c1.2,0,2.1,0.4,2.8,1.3c0.7,0.8,1.1,2.1,1.1,3.8c0,1.6-0.4,2.9-1.1,3.8c-0.7,0.9-1.7,1.3-2.8,1.3
			c-0.7,0-1.3-0.1-1.8-0.4c-0.5-0.3-0.8-0.6-1.1-1h-0.1c0,0.2,0.1,0.5,0.1,0.8s0,0.6,0,0.8v4h-1.9v-14h1.5l0.3,1.3h0.1
			c0.3-0.4,0.6-0.8,1.1-1S228.5,388.3,229.3,388.3z M228.8,389.8c-0.9,0-1.5,0.3-1.9,0.8c-0.4,0.5-0.6,1.3-0.6,2.4v0.3
			c0,1.1,0.2,2,0.5,2.6c0.4,0.6,1,0.9,2,0.9c0.8,0,1.4-0.3,1.8-1c0.4-0.6,0.6-1.5,0.6-2.5c0-1.1-0.2-1.9-0.6-2.5
			C230.2,390.1,229.6,389.8,228.8,389.8z"/>
		<path class="st1" d="M244.1,393.3c0,1.6-0.4,2.9-1.2,3.7c-0.8,0.9-1.9,1.3-3.3,1.3c-0.9,0-1.7-0.2-2.3-0.6c-0.7-0.4-1.2-1-1.6-1.7
			c-0.4-0.8-0.6-1.7-0.6-2.7c0-1.6,0.4-2.8,1.2-3.7c0.8-0.9,1.9-1.3,3.3-1.3c0.9,0,1.7,0.2,2.3,0.6c0.7,0.4,1.2,1,1.6,1.7
			C243.9,391.3,244.1,392.2,244.1,393.3z M237,393.3c0,1.1,0.2,1.9,0.6,2.6c0.4,0.6,1.1,0.9,2,0.9c0.9,0,1.6-0.3,2-0.9
			c0.4-0.6,0.6-1.5,0.6-2.6c0-1.1-0.2-2-0.6-2.5s-1.1-0.9-2-0.9c-0.9,0-1.6,0.3-2,0.9C237.2,391.3,237,392.2,237,393.3z"/>
		<path class="st1" d="M253,395.4c0,1-0.3,1.7-1,2.2s-1.7,0.7-2.9,0.7c-0.7,0-1.3,0-1.8-0.1c-0.5-0.1-0.9-0.2-1.3-0.5v-1.7
			c0.4,0.2,0.9,0.4,1.5,0.5s1.1,0.2,1.7,0.2c0.7,0,1.2-0.1,1.6-0.3c0.3-0.2,0.5-0.5,0.5-0.9c0-0.2-0.1-0.4-0.2-0.6s-0.3-0.4-0.7-0.5
			c-0.3-0.2-0.8-0.4-1.4-0.6c-0.6-0.2-1.1-0.5-1.6-0.7c-0.4-0.3-0.8-0.6-1-0.9c-0.2-0.3-0.3-0.8-0.3-1.3c0-0.8,0.3-1.5,1-1.9
			c0.7-0.5,1.6-0.7,2.7-0.7c0.6,0,1.1,0.1,1.7,0.2s1,0.3,1.5,0.5l-0.6,1.5c-0.4-0.2-0.9-0.3-1.3-0.5c-0.4-0.1-0.9-0.2-1.4-0.2
			c-1.2,0-1.8,0.3-1.8,1c0,0.2,0.1,0.4,0.2,0.6s0.4,0.3,0.7,0.5c0.3,0.2,0.8,0.4,1.4,0.6c0.6,0.2,1.1,0.5,1.5,0.7
			c0.4,0.2,0.8,0.5,1,0.9C252.9,394.5,253,394.9,253,395.4z"/>
		<path class="st1" d="M263.8,398.3c-1.3,0-2.4-0.4-3.2-1.2c-0.8-0.8-1.2-2.1-1.2-3.8c0-1.2,0.2-2.2,0.6-2.9s0.9-1.3,1.6-1.6
			c0.7-0.4,1.5-0.5,2.4-0.5c0.5,0,1,0.1,1.5,0.2c0.5,0.1,0.9,0.2,1.2,0.4l-0.6,1.5c-0.3-0.1-0.7-0.2-1.1-0.3
			c-0.4-0.1-0.7-0.2-1.1-0.2c-1.8,0-2.6,1.2-2.6,3.5c0,1.1,0.2,1.9,0.6,2.5s1.1,0.9,1.9,0.9c0.5,0,1-0.1,1.4-0.2s0.8-0.3,1.2-0.5
			v1.7c-0.3,0.2-0.7,0.4-1.1,0.5C264.9,398.3,264.4,398.3,263.8,398.3z"/>
		<path class="st1" d="M273.5,388.3c0.4,0,0.7,0,1.1,0.1l-0.2,1.8c-0.3-0.1-0.6-0.1-1-0.1c-0.5,0-0.9,0.1-1.4,0.4
			c-0.4,0.2-0.8,0.6-1,1c-0.3,0.5-0.4,1-0.4,1.6v5.1h-1.9v-9.7h1.5l0.3,1.7h0.1c0.3-0.5,0.7-1,1.2-1.3
			C272.3,388.5,272.9,388.3,273.5,388.3z"/>
		<path class="st1" d="M279.9,388.3c1.3,0,2.3,0.4,3,1.2s1.1,1.9,1.1,3.2v1h-6.5c0,1,0.3,1.8,0.8,2.3c0.5,0.5,1.2,0.8,2.1,0.8
			c0.6,0,1.2-0.1,1.7-0.2c0.5-0.1,1-0.3,1.5-0.5v1.6c-0.5,0.2-1,0.4-1.5,0.5c-0.5,0.1-1.1,0.2-1.8,0.2c-0.9,0-1.8-0.2-2.5-0.6
			c-0.7-0.4-1.3-0.9-1.7-1.7c-0.4-0.7-0.6-1.6-0.6-2.7s0.2-2,0.5-2.8s0.9-1.3,1.5-1.7C278.2,388.5,279,388.3,279.9,388.3z
			 M279.9,389.7c-0.7,0-1.2,0.2-1.6,0.7c-0.4,0.4-0.7,1.1-0.7,1.9h4.6c0-0.8-0.2-1.4-0.5-1.8C281.2,390,280.6,389.7,279.9,389.7z"/>
		<path class="st1" d="M290.1,388.3c1.2,0,2.1,0.3,2.7,0.8s0.9,1.4,0.9,2.5v6.6h-1.4l-0.4-1.3h-0.1c-0.4,0.5-0.9,0.9-1.3,1.2
			c-0.5,0.2-1.1,0.4-1.9,0.4c-0.9,0-1.6-0.2-2.2-0.7c-0.6-0.5-0.9-1.2-0.9-2.2c0-1,0.4-1.7,1.1-2.3c0.7-0.5,1.9-0.8,3.4-0.8l1.7-0.1
			v-0.5c0-0.7-0.2-1.2-0.5-1.5c-0.3-0.3-0.8-0.4-1.4-0.4c-0.5,0-1,0.1-1.4,0.2c-0.5,0.1-0.9,0.3-1.3,0.5l-0.6-1.4
			c0.5-0.2,1-0.4,1.6-0.6C288.8,388.4,289.5,388.3,290.1,388.3z M291.8,393.5l-1.3,0c-1.1,0-1.9,0.2-2.3,0.6
			c-0.4,0.3-0.6,0.8-0.6,1.3c0,0.5,0.1,0.9,0.5,1.1c0.3,0.2,0.7,0.3,1.2,0.3c0.7,0,1.4-0.2,1.9-0.6s0.7-1,0.7-1.9V393.5z"/>
		<path class="st1" d="M300,398.3c-1.2,0-2.1-0.4-2.8-1.3s-1.1-2.1-1.1-3.7c0-1.7,0.4-2.9,1.1-3.8c0.7-0.9,1.7-1.3,2.8-1.3
			c0.7,0,1.3,0.1,1.8,0.4c0.5,0.3,0.8,0.6,1.1,1h0.1c0-0.2-0.1-0.4-0.1-0.7s-0.1-0.6-0.1-0.8v-3.6h1.9v13.7h-1.5l-0.3-1.3h-0.1
			c-0.3,0.4-0.6,0.8-1.1,1C301.4,398.2,300.7,398.3,300,398.3z M300.5,396.8c0.9,0,1.6-0.3,2-0.8c0.4-0.5,0.6-1.3,0.6-2.4v-0.3
			c0-1.1-0.2-2-0.5-2.6c-0.4-0.6-1-0.9-2-0.9c-0.8,0-1.4,0.3-1.8,0.9s-0.6,1.5-0.6,2.6c0,1.1,0.2,1.9,0.6,2.5
			S299.7,396.8,300.5,396.8z"/>
		<path class="st1" d="M316.4,393.3c0,1.6-0.4,2.9-1.2,3.7c-0.8,0.9-1.9,1.3-3.3,1.3c-0.9,0-1.7-0.2-2.3-0.6c-0.7-0.4-1.2-1-1.6-1.7
			c-0.4-0.8-0.6-1.7-0.6-2.7c0-1.6,0.4-2.8,1.2-3.7c0.8-0.9,1.9-1.3,3.3-1.3c0.9,0,1.7,0.2,2.3,0.6c0.7,0.4,1.2,1,1.6,1.7
			C316.2,391.3,316.4,392.2,316.4,393.3z M309.2,393.3c0,1.1,0.2,1.9,0.6,2.6c0.4,0.6,1.1,0.9,2,0.9c0.9,0,1.6-0.3,2-0.9
			c0.4-0.6,0.6-1.5,0.6-2.6c0-1.1-0.2-2-0.6-2.5s-1.1-0.9-2-0.9c-0.9,0-1.6,0.3-2,0.9C309.4,391.3,309.2,392.2,309.2,393.3z"/>
		<path class="st1" d="M325.2,395.4c0,1-0.3,1.7-1,2.2s-1.7,0.7-2.9,0.7c-0.7,0-1.3,0-1.8-0.1c-0.5-0.1-0.9-0.2-1.3-0.5v-1.7
			c0.4,0.2,0.9,0.4,1.5,0.5s1.1,0.2,1.7,0.2c0.7,0,1.2-0.1,1.6-0.3c0.3-0.2,0.5-0.5,0.5-0.9c0-0.2-0.1-0.4-0.2-0.6s-0.3-0.4-0.7-0.5
			c-0.3-0.2-0.8-0.4-1.4-0.6c-0.6-0.2-1.1-0.5-1.6-0.7c-0.4-0.3-0.8-0.6-1-0.9c-0.2-0.3-0.3-0.8-0.3-1.3c0-0.8,0.3-1.5,1-1.9
			c0.7-0.5,1.6-0.7,2.7-0.7c0.6,0,1.1,0.1,1.7,0.2s1,0.3,1.5,0.5l-0.6,1.5c-0.4-0.2-0.9-0.3-1.3-0.5c-0.4-0.1-0.9-0.2-1.4-0.2
			c-1.2,0-1.8,0.3-1.8,1c0,0.2,0.1,0.4,0.2,0.6s0.4,0.3,0.7,0.5c0.3,0.2,0.8,0.4,1.4,0.6c0.6,0.2,1.1,0.5,1.5,0.7
			c0.4,0.2,0.8,0.5,1,0.9C325.1,394.5,325.2,394.9,325.2,395.4z"/>
	</g>
	<g>
		
			<image style="overflow:visible;opacity:0.35;" width="75" height="75" xlink:href="DE44DAB2.png"  transform="matrix(1 0 0 1 325.2937 5.2937)">
		</image>
		<g>
			<path class="st16" d="M361.4,15.7c0.3-1,0.9-1.9,1.9-2.4c0.9-0.5,2-0.7,3-0.4c1,0.3,1.9,0.9,2.4,1.9c0.5,0.9,0.7,2,0.4,3l-1,3.9
				c-0.3,1-0.9,1.9-1.9,2.4c-0.9,0.5-2,0.7-3,0.4s-1.9-0.9-2.4-1.9c-0.5-0.9-0.7-2-0.4-3L361.4,15.7L361.4,15.7z M378.5,27
				c0.5-0.1,1-0.2,1.6-0.1c0.5,0.1,1,0.2,1.5,0.5s0.9,0.6,1.2,1c0.3,0.4,0.6,0.9,0.7,1.4c0.1,0.5,0.2,1,0.1,1.6s-0.2,1-0.5,1.5
				c-0.3,0.5-0.6,0.9-1,1.2c-0.4,0.3-0.9,0.6-1.4,0.7l-3.9,1c-1,0.3-2.1,0.1-3-0.4c-0.9-0.5-1.6-1.4-1.9-2.4c-0.3-1-0.1-2.1,0.4-3
				c0.5-0.9,1.4-1.6,2.4-1.9L378.5,27L378.5,27z M343.1,24.8c-0.4-0.4-0.7-0.8-0.9-1.3c-0.2-0.5-0.3-1-0.3-1.5s0.1-1,0.3-1.5
				c0.2-0.5,0.5-0.9,0.9-1.3c0.4-0.4,0.8-0.7,1.3-0.9c0.5-0.2,1-0.3,1.5-0.3c0.5,0,1,0.1,1.5,0.3c0.5,0.2,0.9,0.5,1.3,0.9l2.8,2.8
				c0.4,0.4,0.7,0.8,0.9,1.3c0.2,0.5,0.3,1,0.3,1.5c0,0.5-0.1,1.1-0.3,1.5c-0.2,0.5-0.5,0.9-0.9,1.3c-0.4,0.4-0.8,0.7-1.3,0.9
				c-0.5,0.2-1,0.3-1.5,0.3s-1.1-0.1-1.5-0.3c-0.5-0.2-0.9-0.5-1.3-0.9L343.1,24.8z M371.5,53.2l-2.8-2.8c-0.8-0.8-1.2-1.8-1.2-2.8
				c0-1.1,0.4-2.1,1.2-2.8c0.8-0.8,1.8-1.2,2.8-1.2c1.1,0,2.1,0.4,2.8,1.2l2.8,2.8c0.8,0.8,1.2,1.8,1.2,2.8c0,1.1-0.4,2.1-1.2,2.8
				c-0.8,0.8-1.8,1.2-2.8,1.2C373.3,54.3,372.2,53.9,371.5,53.2L371.5,53.2z"/>
		</g>
	</g>
	<g>
		<path class="st17" d="M197.8,192c0.9,0,1.8,0.4,2.4,1c0.6,0.6,1,1.5,1,2.4v10.3h10.3c0.9,0,1.8,0.4,2.4,1c0.6,0.6,1,1.5,1,2.4
			s-0.4,1.8-1,2.4c-0.6,0.6-1.5,1-2.4,1h-10.3v10.3c0,0.9-0.4,1.8-1,2.4c-0.6,0.6-1.5,1-2.4,1s-1.8-0.4-2.4-1c-0.6-0.6-1-1.5-1-2.4
			v-10.3H184c-0.9,0-1.8-0.4-2.4-1c-0.6-0.6-1-1.5-1-2.4s0.4-1.8,1-2.4c0.6-0.6,1.5-1,2.4-1h10.3v-10.3c0-0.9,0.4-1.8,1-2.4
			C196,192.4,196.9,192,197.8,192z"/>
	</g>
</g>
</svg>
