<svg width="30" height="30" viewBox="0 0 30 30" fill="none" xmlns="http://www.w3.org/2000/svg">
<path d="M29.4065 15.345C29.4065 14.3253 29.3238 13.3002 29.1475 12.2971H14.9995V18.0732H23.1014C22.7652 19.936 21.6849 21.584 20.1031 22.6311V26.379H24.9367C27.7751 23.7665 29.4065 19.9085 29.4065 15.345Z" fill="#4285F4"/>
<path d="M14.9995 30C19.0449 30 22.4565 28.6717 24.9422 26.379L20.1086 22.6312C18.7638 23.5461 17.0277 24.0641 15.005 24.0641C11.0919 24.0641 7.77395 21.4241 6.58347 17.8748H1.59558V21.7383C4.14189 26.8034 9.32819 30 14.9995 30Z" fill="#34A853"/>
<path d="M6.57795 17.8748C5.94964 16.0119 5.94964 13.9947 6.57795 12.1318V8.26825H1.59557C-0.531858 12.5066 -0.531858 17.5 1.59557 21.7383L6.57795 17.8748Z" fill="#FBBC04"/>
<path d="M14.9995 5.93688C17.138 5.90381 19.2048 6.70848 20.7535 8.18556L25.0359 3.90314C22.3243 1.35684 18.7253 -0.043081 14.9995 0.0010108C9.32819 0.0010108 4.14189 3.19767 1.59558 8.26823L6.57796 12.1318C7.76293 8.57688 11.0864 5.93688 14.9995 5.93688Z" fill="#EA4335"/>
</svg>
