<?xml version="1.0" encoding="utf-8"?>
<!-- Generator: Adobe Illustrator 24.0.2, SVG Export Plug-In . SVG Version: 6.00 Build 0)  -->
<svg version="1.1" id="Capa_1" xmlns="http://www.w3.org/2000/svg" xmlns:xlink="http://www.w3.org/1999/xlink" x="0px" y="0px"
	 viewBox="0 0 500 300" style="enable-background:new 0 0 500 300;" xml:space="preserve">
<style type="text/css">
	.st0{fill:#B5BDC6;}
	.st1{fill:#FFC10D;}
	.st2{fill:#194F82;}
	.st3{fill:#56ACE0;}
</style>
<image style="display:none;overflow:visible;" width="500" height="504" xlink:href="328D33D4.jpg"  transform="matrix(1 0 0 1 0 -204)">
</image>
<path class="st0" d="M495.2,255.1h-129c-1.4,0-2.5,1.1-2.5,2.5c0,0,0,0.1,0,0.1c0,13-0.4,17.9-4.7,22.3c-2.9,3-6.4,2.6-12.5-1.4
	c-4.6-3.1-10.7-2.5-15.4,1.6c-2.3,2-7.1,2.5-9.5,0.1c-3.5-3.6-7.6-3.6-8.8-3.6c-1.2-0.1-5.2,0-8.8,3.6c-2.3,2.3-7.1,1.9-9.5-0.1
	c-4.7-4.1-10.8-4.7-15.4-1.6c-6,4.1-9.5,4.5-12.5,1.4c-4.3-4.4-4.7-9.4-4.7-22.3v-0.1c0-1.4-1.1-2.5-2.5-2.5H4.8
	c-1.4,0-2.5,1.1-2.5,2.5s1.1,2.5,2.5,2.5h252.5c0,11.6,0.6,17.8,6.1,23.4c7,7.2,15.6,1.4,18.8-0.7c3.3-2.2,7-0.8,9.4,1.2
	c4.1,3.5,11.9,4.2,16.3-0.1c2.3-2.3,4.9-2.1,4.9-2.1l0.3,0l0.3,0c0.1,0,2.7-0.2,5,2.1c4.3,4.4,12.1,3.7,16.2,0.1
	c2.4-2,6.1-3.4,9.4-1.2c2.1,1.4,6.3,4.3,11,4.3c2.6,0,5.3-0.9,7.9-3.5c5.4-5.6,6-11.8,6.1-23.4h126.5c1.4,0,2.5-1.1,2.5-2.5
	S496.6,255.1,495.2,255.1z"/>
<g>
	<path class="st1" d="M141.9,147.6c0-1.8-1.9-3.2-4.1-3.2c-2.3,0-4.1,1.5-4,3.3l0.1,18.4c0,1.8,1.9,3.2,4.1,3.2
		c0.4,0,0.8-0.1,1.2-0.1c1.7-0.4,2.9-1.7,2.9-3.1L141.9,147.6z"/>
	<path class="st2" d="M133.3,77.7c0,0-3.5-4.1-12-3.9c-8.4,0.2-15.1-6.6-15.5-8c-0.4-1.3-6,13.9,0.3,25.9c0,0,4.1,7.8,11.1,4.6
		L133.3,77.7z"/>
	<path class="st3" d="M145,70.5c0,0,35.5-8.3,43.4,27c7.9,35.3-33.3,48.2-35.8,49c-2.5,0.8-48.5,14.2-69.3-42.2c0,0-16.1-1.8-20.5-6
		s9.7-16.7,11.2-19.6c1.6-3,10.3-0.7,15.1-2.2c4.8-1.5,0.9,20.8-0.4,23.4c0,0,4.4,5.1,14.8,1.9S120.1,78.3,145,70.5z"/>
	<path class="st2" d="M204.4,100.7c-3.4-1.5-11.2-4.7-16.6-5.2c-0.8-0.1-1.4,0.6-1.3,1.4l1.5,12c0.1,0.8,0.9,1.2,1.6,1
		c3.1-1.1,10.7-3.8,15.1-7C205.3,102.3,205.2,101.1,204.4,100.7z"/>
	<ellipse transform="matrix(0.9546 -0.298 0.298 0.9546 -20.1807 56.6531)" class="st2" cx="175.7" cy="94.5" rx="2.5" ry="4.8"/>
</g>
<path class="st0" d="M93.7,192c3.3,0,5.9,2.7,5.9,5.9v8.2H114c0.8-23.7,6-33.7,9.1-37.6c1.4-1.7,3.5-2.7,5.8-2.7h26.9
	c9.7,0,14.8,23.7,14.8,47.2c0,16.9-2.6,34-7.8,42.1h-7c3.3,0,9.8-14.9,9.8-42.1c0-27.3-6.4-42.2-9.8-42.2s-9.7,14.9-9.7,42.2
	c0,27.3,6.4,42.1,9.7,42.1h-7c-5.1-8.2-7.7-25.2-7.7-42.1c0-16.9,2.6-34,7.7-42.2h-19.9c-0.8,0-1.5,0.3-1.9,0.9
	c-2.5,3-8.1,13-8.1,41.3c0,28.2,5.7,38.3,8.1,41.3c0.5,0.6,1.1,0.9,1.9,0.9h-7.4c-3.2-5.2-7.1-15.9-7.6-37.2H99.6v8.2
	c0,3.3-2.7,5.9-5.9,5.9s-5.9-2.6-5.9-5.9v-28.2C87.8,194.6,90.4,192,93.7,192z M98.1,214.9h15.8c0-0.6,0-1.3,0-2c0-1.3,0-2.6,0-3.9
	H98.1c-1.6,0-2.9,1.3-2.9,2.9S96.5,214.9,98.1,214.9z M90.8,226.1c0,1.6,1.3,2.9,2.9,2.9c1.6,0,2.9-1.3,2.9-2.9v-8.4
	c-2.5-0.7-4.4-3-4.4-5.7s1.9-5,4.4-5.7v-8.4c0-1.6-1.3-2.9-2.9-2.9c-1.6,0-2.9,1.3-2.9,2.9V226.1z"/>
<g>
	<path class="st0" d="M348.1,88.5c-0.8-3.1-3.9-4.9-7-4.1l-10.2,2.7l-0.4-1.5c-0.3-1.1-1.4-1.7-2.4-1.4c-1.1,0.3-1.7,1.4-1.4,2.4
		l0.4,1.5l-4,1.1l-2.5-2.1c-0.7-0.6-1.6-0.6-2.4-0.2c-0.7,0.5-1.1,1.4-0.9,2.2l0.4,1.5l-161.2,42.7c-3.1,0.8-4.9,3.9-4.1,7
		c0.4,1.5,1.4,2.7,2.7,3.5c1.3,0.7,2.8,1,4.3,0.6l161.2-42.7l0.2,0.8c0.1,0.5,0.5,1,0.9,1.2c0.4,0.3,1,0.3,1.5,0.2
		c1.1-0.3,1.7-1.4,1.4-2.4l-0.2-0.8l4.4-1.2l1.9,1.6c0.7,0.6,1.6,0.6,2.4,0.2c0.7-0.5,1.1-1.4,0.9-2.2l-0.2-0.8l10.2-2.7
		C347.1,94.7,348.9,91.5,348.1,88.5z M328,92l0.5,1.9l-1.8-1.5L328,92z M158.5,140.5c-0.9,0.2-1.9-0.3-2.1-1.2
		c-0.2-0.9,0.3-1.9,1.2-2.1l161.2-42.7l0.9,3.3L158.5,140.5z M323.5,96.8l-0.7-2.5l2.4,2L323.5,96.8z M343,91.6l-10.2,2.7l-0.9-3.3
		l10.2-2.7c0.5-0.1,0.9,0,1.3,0.2c0.4,0.2,0.7,0.6,0.8,1C344.5,90.4,343.9,91.4,343,91.6z"/>
	<path class="st0" d="M332.2,102.8c-0.7-1.7-1.3-3.5-1.9-5.3l-3.9,1c0.6,2,1.3,3.9,2.1,5.8c7.7,19,10.1,37-2.2,67.8
		c-0.2,0.5-4.3,12.3-6.5,30.8l-5.4-0.8l-1,7.3l2.2,0.3c0.3,1.7,1.4,3.2,2.9,3.9c-0.2,1.1-0.5,2.6-0.9,3.5c-1.1,2.4-1.2,4.6-0.3,6.2
		c0.8,1.5,2.4,2.4,4.8,2.8c2.4,0.3,3.9-0.5,4.7-1.3c2.2-2.1,1.8-5.7,1.7-6.1c-0.1-0.8-0.9-1.4-1.7-1.3c-0.8,0.1-1.4,0.9-1.3,1.7
		c0.1,0.5,0.1,2.7-0.8,3.6c-0.2,0.2-0.7,0.7-2.2,0.5c-1.3-0.2-2.2-0.6-2.6-1.2c-0.4-0.8-0.3-2,0.4-3.5c0.5-1.2,0.9-3,1.2-4.2
		c1.7-0.3,3.2-1.4,3.9-3l2.2,0.3l1-7.3l-4.8-0.7c2.1-18.1,6.2-29.9,6.2-30C342.7,141.7,340.1,122.2,332.2,102.8z M320.4,211.1
		c-0.6-0.1-1.1-0.4-1.5-0.9l3.2,0.4C321.7,211,321.1,211.2,320.4,211.1z M325.2,206.7L325,208l-8.2-1.1l0.2-1.3L325.2,206.7z"/>
	<path class="st0" d="M345.1,245.6c-0.6,0-1.2-0.1-1.8-0.3c-1.7-0.6-2.9-2.1-3.1-3.7c-0.3-2.4-1.7-5.4-1.7-5.4
		c-0.2-0.4-0.1-0.8,0.1-1.1c0.3-0.3,0.7-0.4,1.1-0.3c1.2,0.4,2.4,0.3,3.6,0.3c1.1,0,2.3-0.1,3.5,0.2c1.5,0.3,2.7,1.7,3.2,3.4
		c0.6,2,0,4-1.5,5.5C347.5,245.1,346.3,245.6,345.1,245.6z M341,237.1c0.4,1.2,1,2.8,1.1,4.3c0.1,0.9,0.8,1.7,1.8,2.1
		c1.1,0.4,2.2,0.1,3.1-0.7c1.4-1.3,1.1-2.9,1-3.5c-0.3-1-1-1.8-1.7-2c-1-0.2-2-0.2-3-0.2C342.6,237.1,341.8,237.1,341,237.1z"/>
	<path class="st0" d="M294.2,252.2c-1.5,0-3-0.6-4.1-1.7c-1.4-1.4-1.8-3.4-1.2-5.2c0.6-1.7,2.1-2.9,3.7-3.1c2.4-0.3,5.4-1.7,5.4-1.7
		c0.4-0.2,0.8-0.1,1.1,0.1c0.3,0.3,0.4,0.7,0.3,1.1c-0.4,1.2-0.3,2.4-0.3,3.6c0,1.1,0.1,2.3-0.2,3.5c-0.3,1.5-1.7,2.7-3.4,3.2
		C295.1,252.1,294.6,252.2,294.2,252.2z M297.2,243c-1.2,0.4-2.8,1-4.3,1.1c-0.9,0.1-1.7,0.8-2.1,1.8c-0.4,1.1-0.1,2.2,0.7,3.1
		c1.3,1.4,2.9,1.1,3.5,1c1-0.3,1.8-1,2-1.7c0.2-1,0.2-2,0.2-3C297.1,244.6,297.1,243.8,297.2,243z"/>
</g>
<path class="st2" d="M155.8,111.9c0,0-17-4.3-21.3,9.4s10.9,20.1,16.9,22s20.7,2.7,34.5-7.4c0,0-13.4-5.2-18.5-10.3
	C162.3,120.6,166,117.4,155.8,111.9z"/>
<g>
	<path class="st0" d="M34.3,27.8c-0.4,1.1-1,2-1.8,2.6c-0.8,0.6-1.8,0.9-2.9,0.9c-1.2,0-2.1-0.3-3-0.9c-0.8-0.6-1.4-1.4-1.8-2.5
		c-0.4-1.1-0.6-2.4-0.6-3.9c0-1.5,0.2-2.8,0.6-3.9c0.4-1.1,1-2,1.8-2.6c0.8-0.6,1.8-0.9,2.9-0.9c1.2,0,2.1,0.3,3,0.9
		c0.8,0.6,1.4,1.5,1.8,2.6c0.4,1.1,0.6,2.4,0.6,3.9C34.9,25.4,34.7,26.7,34.3,27.8z M31.7,19.8c-0.5-0.9-1.2-1.4-2.2-1.4
		s-1.8,0.5-2.2,1.4c-0.5,0.9-0.7,2.3-0.7,4.2c0,1.9,0.2,3.2,0.7,4.1c0.5,0.9,1.2,1.3,2.2,1.3c1,0,1.8-0.4,2.2-1.3
		c0.5-0.9,0.7-2.3,0.7-4.1C32.4,22.1,32.2,20.7,31.7,19.8z"/>
	<path class="st0" d="M43.5,20.6c0.7,0.5,1.3,1.1,1.7,2c0.4,0.9,0.6,1.9,0.6,3c0,1.1-0.2,2.2-0.6,3c-0.4,0.9-0.9,1.5-1.7,2
		c-0.7,0.5-1.6,0.7-2.6,0.7c-1,0-1.9-0.2-2.7-0.7c-0.7-0.5-1.3-1.1-1.7-2c-0.4-0.9-0.6-1.9-0.6-3c0-1.1,0.2-2.1,0.6-3
		c0.4-0.9,0.9-1.5,1.7-2c0.7-0.5,1.6-0.7,2.7-0.7C41.9,19.9,42.7,20.1,43.5,20.6z M39,22.6c-0.4,0.6-0.6,1.6-0.6,3
		c0,1.3,0.2,2.3,0.6,3c0.4,0.6,1,1,1.9,1c0.8,0,1.5-0.3,1.9-1c0.4-0.6,0.6-1.6,0.6-3c0-1.3-0.2-2.3-0.6-2.9c-0.4-0.6-1-1-1.9-1
		C40,21.7,39.4,22,39,22.6z"/>
	<path class="st0" d="M54.8,20.6c0.7,0.5,1.3,1.1,1.7,2c0.4,0.9,0.6,1.9,0.6,3c0,1.1-0.2,2.2-0.6,3c-0.4,0.9-0.9,1.5-1.7,2
		s-1.6,0.7-2.6,0.7c-1,0-1.9-0.2-2.7-0.7s-1.3-1.1-1.7-2c-0.4-0.9-0.6-1.9-0.6-3c0-1.1,0.2-2.1,0.6-3c0.4-0.9,0.9-1.5,1.7-2
		c0.7-0.5,1.6-0.7,2.7-0.7C53.2,19.9,54.1,20.1,54.8,20.6z M50.3,22.6c-0.4,0.6-0.6,1.6-0.6,3c0,1.3,0.2,2.3,0.6,3
		c0.4,0.6,1,1,1.9,1s1.5-0.3,1.9-1c0.4-0.6,0.6-1.6,0.6-3c0-1.3-0.2-2.3-0.6-2.9c-0.4-0.6-1-1-1.9-1C51.3,21.7,50.7,22,50.3,22.6z"
		/>
	<path class="st0" d="M68.3,25.6c0,1.1-0.2,2.1-0.5,3c-0.3,0.9-0.8,1.5-1.4,2c-0.6,0.5-1.4,0.7-2.3,0.7c-1.1,0-2.1-0.4-2.7-1.2v5.1
		l-2.3,0.3V20.2h2l0.1,1.4c0.4-0.6,0.9-1,1.4-1.3c0.5-0.3,1.1-0.4,1.7-0.4C67,19.9,68.3,21.8,68.3,25.6z M62.4,22.1
		c-0.4,0.3-0.7,0.7-1,1.1v5.1c0.5,0.8,1.3,1.2,2.1,1.2c0.8,0,1.4-0.3,1.8-0.9c0.4-0.6,0.6-1.6,0.6-3c0-1.4-0.2-2.4-0.5-3
		s-0.9-0.9-1.6-0.9C63.3,21.7,62.8,21.8,62.4,22.1z"/>
	<path class="st0" d="M76.1,29.1c0.4-0.3,0.6-0.6,0.6-1.1c0-0.3-0.1-0.6-0.2-0.8c-0.1-0.2-0.4-0.4-0.7-0.6s-0.9-0.4-1.7-0.5
		c-0.8-0.2-1.4-0.4-1.9-0.7s-0.9-0.6-1.2-1c-0.3-0.4-0.4-0.9-0.4-1.5c0-0.6,0.2-1.2,0.5-1.6c0.4-0.5,0.9-0.8,1.5-1.1
		c0.7-0.3,1.4-0.4,2.3-0.4c1.6,0,3,0.4,4.1,1.3l-1,1.4c-0.5-0.3-0.9-0.5-1.4-0.7c-0.5-0.2-1.1-0.3-1.6-0.3c-1.4,0-2.1,0.4-2.1,1.2
		c0,0.3,0.1,0.5,0.2,0.7s0.4,0.3,0.8,0.5c0.4,0.2,1,0.3,1.7,0.5c0.8,0.2,1.4,0.5,1.9,0.7c0.5,0.3,0.9,0.6,1.2,1
		c0.3,0.4,0.4,1,0.4,1.6c0,0.7-0.2,1.4-0.7,1.9c-0.4,0.5-1,0.9-1.7,1.1c-0.7,0.2-1.5,0.4-2.4,0.4c-1,0-1.8-0.1-2.5-0.4
		c-0.7-0.3-1.4-0.6-1.9-1.1l1.2-1.4c0.4,0.4,0.9,0.6,1.5,0.9s1.1,0.3,1.7,0.3C75.1,29.5,75.6,29.4,76.1,29.1z"/>
	<path class="st0" d="M86.8,28.4c0.2,0.1,0.4,0.3,0.6,0.6c0.1,0.2,0.2,0.5,0.2,0.8c0,0.3-0.1,0.5-0.2,0.8c-0.1,0.2-0.3,0.4-0.6,0.6
		c-0.2,0.1-0.5,0.2-0.8,0.2s-0.5-0.1-0.8-0.2c-0.2-0.1-0.4-0.3-0.6-0.6s-0.2-0.5-0.2-0.8c0-0.3,0.1-0.5,0.2-0.8
		c0.1-0.2,0.3-0.4,0.6-0.6c0.2-0.1,0.5-0.2,0.8-0.2S86.6,28.2,86.8,28.4z M84.8,16.8h2.5L87,26.1H85L84.8,16.8z"/>
	<path class="st0" d="M98.1,28.4c0.2,0.1,0.4,0.3,0.6,0.6c0.1,0.2,0.2,0.5,0.2,0.8c0,0.3-0.1,0.5-0.2,0.8c-0.1,0.2-0.3,0.4-0.6,0.6
		c-0.2,0.1-0.5,0.2-0.8,0.2s-0.5-0.1-0.8-0.2c-0.2-0.1-0.4-0.3-0.6-0.6s-0.2-0.5-0.2-0.8c0-0.3,0.1-0.5,0.2-0.8
		c0.1-0.2,0.3-0.4,0.6-0.6c0.2-0.1,0.5-0.2,0.8-0.2S97.9,28.2,98.1,28.4z M96.1,16.8h2.5l-0.3,9.3h-1.9L96.1,16.8z"/>
	<path class="st0" d="M109.4,28.4c0.2,0.1,0.4,0.3,0.6,0.6c0.1,0.2,0.2,0.5,0.2,0.8c0,0.3-0.1,0.5-0.2,0.8s-0.3,0.4-0.6,0.6
		c-0.2,0.1-0.5,0.2-0.8,0.2s-0.5-0.1-0.8-0.2c-0.2-0.1-0.4-0.3-0.6-0.6s-0.2-0.5-0.2-0.8c0-0.3,0.1-0.5,0.2-0.8
		c0.1-0.2,0.3-0.4,0.6-0.6c0.2-0.1,0.5-0.2,0.8-0.2S109.2,28.2,109.4,28.4z M107.4,16.8h2.5l-0.3,9.3h-1.9L107.4,16.8z"/>
	<path class="st0" d="M135.5,25.5H127v-1.9h8.5V25.5z"/>
	<path class="st0" d="M151,19c0.1,0.9,0.2,1.9,0.2,2.8c0.1,0.9,0.1,1.9,0.1,2.8V31h-2.1V16.8h3.1l4.5,12.1c-0.2-2.1-0.3-3.9-0.3-5.6
		v-6.5h2.1V31h-3.1L151,19z"/>
	<path class="st0" d="M167.9,20.6c0.7,0.5,1.3,1.1,1.7,2c0.4,0.9,0.6,1.9,0.6,3c0,1.1-0.2,2.2-0.6,3c-0.4,0.9-0.9,1.5-1.7,2
		c-0.7,0.5-1.6,0.7-2.6,0.7c-1,0-1.9-0.2-2.7-0.7c-0.7-0.5-1.3-1.1-1.7-2c-0.4-0.9-0.6-1.9-0.6-3c0-1.1,0.2-2.1,0.6-3
		c0.4-0.9,0.9-1.5,1.7-2c0.7-0.5,1.6-0.7,2.7-0.7C166.2,19.9,167.1,20.1,167.9,20.6z M163.3,22.6c-0.4,0.6-0.6,1.6-0.6,3
		c0,1.3,0.2,2.3,0.6,3c0.4,0.6,1,1,1.9,1c0.8,0,1.5-0.3,1.9-1c0.4-0.6,0.6-1.6,0.6-3c0-1.3-0.2-2.3-0.6-2.9c-0.4-0.6-1-1-1.9-1
		C164.4,21.7,163.7,22,163.3,22.6z"/>
	<path class="st0" d="M189.1,29.1c0.4-0.3,0.6-0.6,0.6-1.1c0-0.3-0.1-0.6-0.2-0.8c-0.1-0.2-0.4-0.4-0.7-0.6
		c-0.4-0.2-0.9-0.4-1.7-0.5c-0.8-0.2-1.4-0.4-1.9-0.7s-0.9-0.6-1.2-1c-0.3-0.4-0.4-0.9-0.4-1.5c0-0.6,0.2-1.2,0.5-1.6
		s0.9-0.8,1.5-1.1s1.4-0.4,2.3-0.4c1.6,0,3,0.4,4.1,1.3l-1,1.4c-0.5-0.3-0.9-0.5-1.4-0.7s-1.1-0.3-1.6-0.3c-1.4,0-2.1,0.4-2.1,1.2
		c0,0.3,0.1,0.5,0.2,0.7s0.4,0.3,0.8,0.5c0.4,0.2,1,0.3,1.7,0.5c0.8,0.2,1.4,0.5,1.9,0.7s0.9,0.6,1.2,1s0.4,1,0.4,1.6
		c0,0.7-0.2,1.4-0.7,1.9c-0.4,0.5-1,0.9-1.7,1.1c-0.7,0.2-1.5,0.4-2.4,0.4c-1,0-1.8-0.1-2.5-0.4s-1.4-0.6-1.9-1.1l1.2-1.4
		c0.4,0.4,0.9,0.6,1.5,0.9c0.5,0.2,1.1,0.3,1.7,0.3C188.1,29.5,188.7,29.4,189.1,29.1z"/>
	<path class="st0" d="M196.7,26.3c0.1,1.1,0.4,1.9,0.9,2.4s1.2,0.8,2.1,0.8c0.5,0,1-0.1,1.4-0.2s0.9-0.4,1.4-0.7l1,1.4
		c-0.5,0.4-1.1,0.8-1.8,1s-1.4,0.4-2.2,0.4c-1.1,0-2-0.2-2.8-0.7c-0.8-0.5-1.4-1.1-1.8-2c-0.4-0.9-0.6-1.8-0.6-3
		c0-1.1,0.2-2.1,0.6-2.9c0.4-0.9,1-1.5,1.7-2c0.7-0.5,1.6-0.7,2.6-0.7c1,0,1.8,0.2,2.5,0.7c0.7,0.4,1.2,1.1,1.6,1.9
		c0.4,0.8,0.6,1.8,0.6,2.9c0,0.4,0,0.7-0.1,1H196.7z M197.5,22.4c-0.5,0.5-0.7,1.3-0.8,2.4h5c0-1-0.2-1.8-0.7-2.3s-1-0.8-1.8-0.8
		C198.5,21.6,197.9,21.8,197.5,22.4z"/>
	<path class="st0" d="M219.3,26.3c0.1,1.1,0.4,1.9,0.9,2.4s1.2,0.8,2.1,0.8c0.5,0,1-0.1,1.4-0.2s0.9-0.4,1.4-0.7l1,1.4
		c-0.5,0.4-1.1,0.8-1.8,1s-1.4,0.4-2.2,0.4c-1.1,0-2-0.2-2.8-0.7c-0.8-0.5-1.4-1.1-1.8-2c-0.4-0.9-0.6-1.8-0.6-3
		c0-1.1,0.2-2.1,0.6-2.9c0.4-0.9,1-1.5,1.7-2c0.7-0.5,1.6-0.7,2.6-0.7c1,0,1.8,0.2,2.5,0.7c0.7,0.4,1.2,1.1,1.6,1.9
		c0.4,0.8,0.6,1.8,0.6,2.9c0,0.4,0,0.7-0.1,1H219.3z M220.1,22.4c-0.5,0.5-0.7,1.3-0.8,2.4h5c0-1-0.2-1.8-0.7-2.3s-1-0.8-1.8-0.8
		C221.2,21.6,220.5,21.8,220.1,22.4z"/>
	<path class="st0" d="M228.7,31V20.2h2l0.2,1.4c0.4-0.5,1-1,1.6-1.3c0.6-0.3,1.3-0.4,1.9-0.4c1,0,1.8,0.3,2.3,0.8
		c0.5,0.6,0.8,1.4,0.8,2.4V31h-2.3v-6.8c0-0.7,0-1.2-0.1-1.5c-0.1-0.4-0.2-0.6-0.5-0.8c-0.2-0.2-0.5-0.3-1-0.3c-0.5,0-1,0.2-1.4,0.5
		c-0.4,0.3-0.8,0.7-1.1,1.1V31H228.7z"/>
	<path class="st0" d="M246.6,29.1c0.4-0.2,0.9-0.4,1.3-0.7l1.1,1.5c-0.5,0.4-1.1,0.7-1.7,1c-0.7,0.2-1.4,0.4-2.1,0.4
		c-1.1,0-2-0.2-2.8-0.7c-0.8-0.5-1.4-1.1-1.8-2c-0.4-0.9-0.6-1.8-0.6-3c0-1.1,0.2-2.1,0.6-3s1-1.6,1.8-2c0.8-0.5,1.7-0.7,2.8-0.7
		c1.4,0,2.7,0.4,3.8,1.3l-1.1,1.4c-0.9-0.6-1.8-0.9-2.7-0.9c-0.9,0-1.6,0.3-2.1,1c-0.5,0.6-0.8,1.6-0.8,2.9c0,1.3,0.3,2.2,0.8,2.8
		c0.5,0.6,1.2,0.9,2.1,0.9C245.7,29.4,246.2,29.3,246.6,29.1z"/>
	<path class="st0" d="M258.3,20.6c0.7,0.5,1.3,1.1,1.7,2c0.4,0.9,0.6,1.9,0.6,3c0,1.1-0.2,2.2-0.6,3c-0.4,0.9-0.9,1.5-1.7,2
		c-0.7,0.5-1.6,0.7-2.6,0.7c-1,0-1.9-0.2-2.7-0.7c-0.7-0.5-1.3-1.1-1.7-2c-0.4-0.9-0.6-1.9-0.6-3c0-1.1,0.2-2.1,0.6-3
		c0.4-0.9,0.9-1.5,1.7-2c0.7-0.5,1.6-0.7,2.7-0.7C256.7,19.9,257.6,20.1,258.3,20.6z M253.8,22.6c-0.4,0.6-0.6,1.6-0.6,3
		c0,1.3,0.2,2.3,0.6,3c0.4,0.6,1,1,1.9,1c0.8,0,1.5-0.3,1.9-1c0.4-0.6,0.6-1.6,0.6-3c0-1.3-0.2-2.3-0.6-2.9c-0.4-0.6-1-1-1.9-1
		C254.8,21.7,254.2,22,253.8,22.6z"/>
	<path class="st0" d="M262.6,31V20.2h2l0.2,1.4c0.4-0.5,1-1,1.6-1.3s1.3-0.4,1.9-0.4c1,0,1.8,0.3,2.3,0.8c0.5,0.6,0.8,1.4,0.8,2.4
		V31H269v-6.8c0-0.7,0-1.2-0.1-1.5c-0.1-0.4-0.2-0.6-0.5-0.8c-0.2-0.2-0.5-0.3-1-0.3c-0.5,0-1,0.2-1.4,0.5c-0.4,0.3-0.8,0.7-1.1,1.1
		V31H262.6z"/>
	<path class="st0" d="M283,30.4c-0.4,0.3-0.9,0.5-1.4,0.6c-0.6,0.2-1.1,0.2-1.7,0.2c-0.8,0-1.5-0.1-2.1-0.4s-1-0.7-1.3-1.2
		c-0.3-0.5-0.4-1.2-0.4-1.9v-5.9h-2.4v-1.7h2.4v-2.4l2.3-0.3v2.7h3.7l-0.3,1.7h-3.4v5.9c0,0.6,0.1,1,0.4,1.3s0.8,0.4,1.4,0.4
		c0.7,0,1.4-0.2,2-0.5L283,30.4z"/>
	<path class="st0" d="M293.8,20c0.3,0,0.5,0.1,0.8,0.2l-0.4,4h-1.6V22c-0.8,0-1.4,0.3-2,0.9c-0.6,0.6-1,1.4-1.3,2.5v4h2.2V31h-6.1
		v-1.6h1.6v-7.6h-1.6v-1.6h3.3l0.4,2.5c0.4-0.9,0.9-1.6,1.5-2.1c0.6-0.5,1.4-0.7,2.3-0.7C293.2,19.9,293.5,19.9,293.8,20z"/>
	<path class="st0" d="M304.8,28.3c0,0.4,0.1,0.7,0.2,0.9c0.1,0.2,0.3,0.3,0.6,0.4l-0.5,1.6c-0.6-0.1-1-0.2-1.4-0.5s-0.7-0.6-0.9-1
		c-0.4,0.5-0.9,0.9-1.5,1.1c-0.6,0.3-1.3,0.4-2,0.4c-0.7,0-1.4-0.1-1.9-0.4s-0.9-0.7-1.2-1.2c-0.3-0.5-0.4-1.1-0.4-1.8
		c0-1.1,0.4-2,1.3-2.6s2.2-0.9,3.8-0.9h1.5v-0.7c0-0.7-0.2-1.2-0.6-1.5s-1-0.5-1.8-0.5c-0.4,0-0.8,0-1.3,0.1c-0.5,0.1-1,0.2-1.6,0.4
		l-0.6-1.6c0.7-0.2,1.3-0.4,2-0.6c0.7-0.1,1.3-0.2,1.8-0.2c1.4,0,2.5,0.3,3.2,0.9s1.1,1.5,1.1,2.7V28.3z M301.5,29.2
		c0.4-0.2,0.8-0.6,1.1-1v-2.4h-1.3c-1,0-1.8,0.2-2.3,0.5c-0.5,0.3-0.7,0.8-0.7,1.5c0,0.6,0.2,1,0.5,1.3c0.3,0.3,0.8,0.5,1.4,0.5
		C300.6,29.6,301.1,29.5,301.5,29.2z"/>
	<path class="st0" d="M316.4,20c0.3,0,0.5,0.1,0.8,0.2l-0.4,4h-1.6V22c-0.8,0-1.4,0.3-2,0.9c-0.6,0.6-1,1.4-1.3,2.5v4h2.2V31H308
		v-1.6h1.6v-7.6H308v-1.6h3.3l0.4,2.5c0.4-0.9,0.9-1.6,1.5-2.1c0.6-0.5,1.4-0.7,2.3-0.7C315.8,19.9,316.1,19.9,316.4,20z"/>
	<path class="st0" d="M326.2,20.6c0.7,0.5,1.3,1.1,1.7,2c0.4,0.9,0.6,1.9,0.6,3c0,1.1-0.2,2.2-0.6,3c-0.4,0.9-0.9,1.5-1.7,2
		s-1.6,0.7-2.6,0.7c-1,0-1.9-0.2-2.7-0.7c-0.7-0.5-1.3-1.1-1.7-2c-0.4-0.9-0.6-1.9-0.6-3c0-1.1,0.2-2.1,0.6-3c0.4-0.9,0.9-1.5,1.7-2
		c0.7-0.5,1.6-0.7,2.7-0.7C324.5,19.9,325.4,20.1,326.2,20.6z M321.6,22.6c-0.4,0.6-0.6,1.6-0.6,3c0,1.3,0.2,2.3,0.6,3
		c0.4,0.6,1,1,1.9,1c0.8,0,1.5-0.3,1.9-1c0.4-0.6,0.6-1.6,0.6-3c0-1.3-0.2-2.3-0.6-2.9c-0.4-0.6-1-1-1.9-1
		C322.7,21.7,322,22,321.6,22.6z"/>
	<path class="st0" d="M330.5,31V20.2h2l0.2,1.4c0.4-0.5,1-1,1.6-1.3s1.3-0.4,1.9-0.4c1,0,1.8,0.3,2.3,0.8c0.5,0.6,0.8,1.4,0.8,2.4
		V31h-2.3v-6.8c0-0.7,0-1.2-0.1-1.5c-0.1-0.4-0.2-0.6-0.5-0.8c-0.2-0.2-0.5-0.3-1-0.3c-0.5,0-1,0.2-1.4,0.5s-0.8,0.7-1.1,1.1V31
		H330.5z"/>
	<path class="st0" d="M361.6,20c0.3,0,0.5,0.1,0.8,0.2l-0.4,4h-1.6V22c-0.8,0-1.4,0.3-2,0.9c-0.6,0.6-1,1.4-1.3,2.5v4h2.2V31h-6.1
		v-1.6h1.6v-7.6h-1.6v-1.6h3.3l0.4,2.5c0.4-0.9,0.9-1.6,1.5-2.1c0.6-0.5,1.4-0.7,2.3-0.7C361.1,19.9,361.4,19.9,361.6,20z"/>
	<path class="st0" d="M366.3,26.3c0.1,1.1,0.4,1.9,0.9,2.4c0.5,0.5,1.2,0.8,2.1,0.8c0.5,0,1-0.1,1.4-0.2c0.5-0.2,0.9-0.4,1.4-0.7
		l1,1.4c-0.5,0.4-1.1,0.8-1.8,1c-0.7,0.2-1.4,0.4-2.2,0.4c-1.1,0-2-0.2-2.8-0.7c-0.8-0.5-1.4-1.1-1.8-2c-0.4-0.9-0.6-1.8-0.6-3
		c0-1.1,0.2-2.1,0.6-2.9c0.4-0.9,1-1.5,1.7-2c0.7-0.5,1.6-0.7,2.6-0.7c1,0,1.8,0.2,2.5,0.7c0.7,0.4,1.2,1.1,1.6,1.9
		c0.4,0.8,0.6,1.8,0.6,2.9c0,0.4,0,0.7-0.1,1H366.3z M367.1,22.4c-0.5,0.5-0.7,1.3-0.8,2.4h5c0-1-0.2-1.8-0.7-2.3s-1-0.8-1.8-0.8
		C368.1,21.6,367.5,21.8,367.1,22.4z"/>
	<path class="st0" d="M381.4,29.1c0.4-0.3,0.6-0.6,0.6-1.1c0-0.3-0.1-0.6-0.2-0.8c-0.1-0.2-0.4-0.4-0.7-0.6s-0.9-0.4-1.7-0.5
		c-0.8-0.2-1.4-0.4-1.9-0.7s-0.9-0.6-1.2-1c-0.3-0.4-0.4-0.9-0.4-1.5c0-0.6,0.2-1.2,0.5-1.6c0.4-0.5,0.9-0.8,1.5-1.1
		c0.7-0.3,1.4-0.4,2.3-0.4c1.6,0,3,0.4,4.1,1.3l-1,1.4c-0.5-0.3-0.9-0.5-1.4-0.7c-0.5-0.2-1.1-0.3-1.6-0.3c-1.4,0-2.1,0.4-2.1,1.2
		c0,0.3,0.1,0.5,0.2,0.7c0.2,0.2,0.4,0.3,0.8,0.5s1,0.3,1.7,0.5c0.8,0.2,1.4,0.5,1.9,0.7s0.9,0.6,1.2,1c0.3,0.4,0.4,1,0.4,1.6
		c0,0.7-0.2,1.4-0.7,1.9c-0.4,0.5-1,0.9-1.7,1.1c-0.7,0.2-1.5,0.4-2.4,0.4c-1,0-1.8-0.1-2.5-0.4s-1.4-0.6-1.9-1.1l1.2-1.4
		c0.4,0.4,0.9,0.6,1.5,0.9c0.5,0.2,1.1,0.3,1.7,0.3C380.4,29.5,380.9,29.4,381.4,29.1z"/>
	<path class="st0" d="M389.3,27.7c0,0.6,0.1,1.1,0.4,1.4c0.3,0.3,0.6,0.4,1.2,0.4c0.5,0,0.9-0.1,1.4-0.4s0.8-0.6,1.1-1.1v-7.8h2.3
		V31h-2l-0.1-1.4c-0.4,0.5-0.9,0.9-1.5,1.2c-0.6,0.3-1.2,0.4-1.9,0.4c-1,0-1.8-0.3-2.3-0.9S387,29.1,387,28v-7.9h2.3V27.7z"/>
	<path class="st0" d="M403.1,28c0,0.5,0.1,0.8,0.4,1s0.7,0.3,1.2,0.3c0.5,0,1.1-0.1,1.7-0.4l0.6,1.6c-0.8,0.4-1.7,0.6-2.8,0.6
		c-0.7,0-1.3-0.1-1.9-0.4c-0.5-0.3-0.9-0.7-1.2-1.2c-0.3-0.5-0.4-1.1-0.4-1.8V17.5h-3.3v-1.7h5.6V28z"/>
	<path class="st0" d="M418.7,30.4c-0.4,0.3-0.9,0.5-1.4,0.6c-0.6,0.2-1.1,0.2-1.7,0.2c-0.8,0-1.5-0.1-2.1-0.4s-1-0.7-1.3-1.2
		c-0.3-0.5-0.4-1.2-0.4-1.9v-5.9h-2.4v-1.7h2.4v-2.4l2.3-0.3v2.7h3.7l-0.3,1.7H414v5.9c0,0.6,0.1,1,0.4,1.3s0.8,0.4,1.4,0.4
		c0.7,0,1.4-0.2,2-0.5L418.7,30.4z"/>
	<path class="st0" d="M429.2,28.3c0,0.4,0.1,0.7,0.2,0.9c0.1,0.2,0.3,0.3,0.6,0.4l-0.5,1.6c-0.6-0.1-1-0.2-1.4-0.5s-0.7-0.6-0.9-1
		c-0.4,0.5-0.9,0.9-1.5,1.1c-0.6,0.3-1.3,0.4-2,0.4c-0.7,0-1.4-0.1-1.9-0.4s-0.9-0.7-1.2-1.2c-0.3-0.5-0.4-1.1-0.4-1.8
		c0-1.1,0.4-2,1.3-2.6s2.2-0.9,3.8-0.9h1.5v-0.7c0-0.7-0.2-1.2-0.6-1.5s-1-0.5-1.8-0.5c-0.4,0-0.8,0-1.3,0.1c-0.5,0.1-1,0.2-1.6,0.4
		l-0.6-1.6c0.7-0.2,1.3-0.4,2-0.6c0.7-0.1,1.3-0.2,1.8-0.2c1.4,0,2.5,0.3,3.2,0.9s1.1,1.5,1.1,2.7V28.3z M425.9,29.2
		c0.4-0.2,0.8-0.6,1.1-1v-2.4h-1.3c-1,0-1.8,0.2-2.3,0.5c-0.5,0.3-0.7,0.8-0.7,1.5c0,0.6,0.2,1,0.5,1.3c0.3,0.3,0.8,0.5,1.4,0.5
		C425,29.6,425.4,29.5,425.9,29.2z"/>
	<path class="st0" d="M438.6,15.6l2.3,0.3V31h-2l-0.2-1.3c-0.4,0.5-0.8,0.9-1.3,1.2c-0.5,0.3-1.1,0.4-1.7,0.4c-1.3,0-2.4-0.5-3-1.5
		c-0.7-1-1-2.4-1-4.2c0-1.1,0.2-2.1,0.5-2.9c0.3-0.9,0.8-1.5,1.5-2c0.6-0.5,1.4-0.7,2.3-0.7c1.1,0,2,0.4,2.7,1.2V15.6z M434.7,22.6
		c-0.4,0.6-0.6,1.6-0.6,3c0,2.6,0.7,3.9,2.2,3.9c0.9,0,1.7-0.5,2.3-1.5v-5.1c-0.3-0.4-0.6-0.7-0.9-0.9c-0.4-0.2-0.7-0.3-1.2-0.3
		C435.7,21.6,435.1,22,434.7,22.6z"/>
	<path class="st0" d="M450.5,20.6c0.7,0.5,1.3,1.1,1.7,2c0.4,0.9,0.6,1.9,0.6,3c0,1.1-0.2,2.2-0.6,3c-0.4,0.9-0.9,1.5-1.7,2
		s-1.6,0.7-2.6,0.7c-1,0-1.9-0.2-2.7-0.7c-0.7-0.5-1.3-1.1-1.7-2c-0.4-0.9-0.6-1.9-0.6-3c0-1.1,0.2-2.1,0.6-3c0.4-0.9,0.9-1.5,1.7-2
		c0.7-0.5,1.6-0.7,2.7-0.7C448.9,19.9,449.8,20.1,450.5,20.6z M446,22.6c-0.4,0.6-0.6,1.6-0.6,3c0,1.3,0.2,2.3,0.6,3
		c0.4,0.6,1,1,1.9,1c0.8,0,1.5-0.3,1.9-1c0.4-0.6,0.6-1.6,0.6-3c0-1.3-0.2-2.3-0.6-2.9c-0.4-0.6-1-1-1.9-1
		C447.1,21.7,446.4,22,446,22.6z"/>
	<path class="st0" d="M460.5,29.1c0.4-0.3,0.6-0.6,0.6-1.1c0-0.3-0.1-0.6-0.2-0.8c-0.1-0.2-0.4-0.4-0.7-0.6s-0.9-0.4-1.7-0.5
		c-0.8-0.2-1.4-0.4-1.9-0.7s-0.9-0.6-1.2-1c-0.3-0.4-0.4-0.9-0.4-1.5c0-0.6,0.2-1.2,0.5-1.6c0.4-0.5,0.9-0.8,1.5-1.1
		c0.7-0.3,1.4-0.4,2.3-0.4c1.6,0,3,0.4,4.1,1.3l-1,1.4c-0.5-0.3-0.9-0.5-1.4-0.7c-0.5-0.2-1.1-0.3-1.6-0.3c-1.4,0-2.1,0.4-2.1,1.2
		c0,0.3,0.1,0.5,0.2,0.7c0.2,0.2,0.4,0.3,0.8,0.5s1,0.3,1.7,0.5c0.8,0.2,1.4,0.5,1.9,0.7s0.9,0.6,1.2,1c0.3,0.4,0.4,1,0.4,1.6
		c0,0.7-0.2,1.4-0.7,1.9c-0.4,0.5-1,0.9-1.7,1.1c-0.7,0.2-1.5,0.4-2.4,0.4c-1,0-1.8-0.1-2.5-0.4s-1.4-0.6-1.9-1.1l1.2-1.4
		c0.4,0.4,0.9,0.6,1.5,0.9c0.5,0.2,1.1,0.3,1.7,0.3C459.5,29.5,460.1,29.4,460.5,29.1z"/>
</g>
</svg>
