<svg width="90" height="19" viewBox="0 0 90 19" fill="none" xmlns="http://www.w3.org/2000/svg">
<path d="M26.5646 6.21484C27.1262 6.55299 27.582 7.04153 27.8805 7.62522C28.1993 8.27704 28.3549 8.99659 28.3338 9.72189C28.3463 10.4532 28.1822 11.1768 27.8553 11.8312C27.5608 12.4209 27.1043 12.9145 26.5394 13.2541C25.9545 13.5987 25.2851 13.7732 24.6064 13.7578C24.1001 13.7665 23.5972 13.6745 23.1268 13.4871C22.7113 13.3251 22.3462 13.0557 22.069 12.7064V17.0004H20.1801V5.9504H21.7416L21.8801 7.03966C22.1638 6.62041 22.5553 6.28543 23.0134 6.07003C23.515 5.82517 24.0672 5.70221 24.6253 5.71114C25.306 5.69529 25.9776 5.86973 26.5646 6.21484ZM25.8153 11.403C26.2325 10.9514 26.4583 10.3555 26.4449 9.74078C26.4615 9.12175 26.2356 8.52073 25.8153 8.06596C25.4049 7.65916 24.8505 7.43092 24.2727 7.43092C23.6949 7.43092 23.1404 7.65916 22.7301 8.06596C22.3181 8.5288 22.1034 9.13439 22.1319 9.75337C22.1166 10.0557 22.1609 10.3582 22.2625 10.6434C22.364 10.9286 22.5208 11.191 22.7238 11.4156C23.1368 11.8198 23.6917 12.0461 24.2695 12.0461C24.8474 12.0461 25.4023 11.8198 25.8153 11.4156V11.403Z" fill="#B5B9BB"/>
<path d="M29.3097 1.88931H31.1986V13.5375H29.3097V1.88931Z" fill="#B5B9BB"/>
<path d="M40.2968 5.95044V13.5375H38.4898V12.4608C38.214 12.8752 37.828 13.2045 37.3753 13.4116C36.8671 13.6486 36.3116 13.767 35.7509 13.7579C35.0879 13.7721 34.434 13.6021 33.862 13.2668C33.318 12.9299 32.8812 12.4451 32.6027 11.869C32.2932 11.2142 32.1402 10.4964 32.1557 9.77231C32.1414 9.03544 32.3033 8.30582 32.6279 7.64415C32.9208 7.04965 33.3802 6.55308 33.9501 6.21489C34.54 5.87694 35.2096 5.70303 35.8894 5.71118C36.4242 5.70484 36.9543 5.81215 37.4446 6.026C37.8946 6.21895 38.2841 6.53006 38.5716 6.92637L38.7228 5.96303L40.2968 5.95044ZM37.7783 11.3905C38.2013 10.9348 38.4276 10.3308 38.4079 9.70935C38.4249 9.09213 38.1988 8.49294 37.7783 8.04082C37.5776 7.83112 37.3345 7.66653 37.0653 7.55797C36.7961 7.44941 36.5069 7.39938 36.2168 7.41119C35.9276 7.39865 35.6391 7.44838 35.3708 7.557C35.1025 7.66563 34.8606 7.83063 34.6616 8.04082C34.2579 8.50276 34.0481 9.10276 34.0761 9.71564C34.0475 10.3316 34.2598 10.9345 34.6679 11.3968C34.8704 11.6006 35.1112 11.7625 35.3765 11.8729C35.6418 11.9833 35.9263 12.0402 36.2137 12.0402C36.501 12.0402 36.7855 11.9833 37.0508 11.8729C37.3161 11.7625 37.5569 11.6006 37.7594 11.3968L37.7783 11.3905Z" fill="#B5B9BB"/>
<path d="M41.2601 11.8816L45.0379 7.61267H41.2601V5.95044H47.3802V7.63156L43.5583 11.8501H47.3802V13.5375H41.2601V11.8816Z" fill="#B5B9BB"/>
<path d="M59.2236 6.46669C59.4831 6.74292 59.6838 7.06892 59.8137 7.42498C59.9436 7.78104 59.9998 8.15974 59.9791 8.53818V13.5375H58.0902V8.99151C58.1217 8.55038 57.9844 8.11376 57.7062 7.77002C57.5715 7.63298 57.4092 7.52617 57.2301 7.45669C57.051 7.38721 56.8591 7.35666 56.6673 7.36706C56.4488 7.35529 56.2305 7.3921 56.028 7.47484C55.8255 7.55759 55.6438 7.68421 55.4962 7.84558C55.2111 8.18966 55.0631 8.62688 55.0806 9.07336V13.5375H53.1917V8.99151C53.2162 8.5579 53.0769 8.13091 52.8013 7.79521C52.6652 7.64981 52.4987 7.53609 52.3138 7.46211C52.1288 7.38813 51.9298 7.35568 51.731 7.36706C51.5207 7.35877 51.3112 7.39806 51.1183 7.48201C50.9253 7.56595 50.7538 7.69239 50.6165 7.85188C50.3296 8.19282 50.1793 8.62803 50.1947 9.07336V13.5375H48.3058V5.98187H50.0435L50.138 6.80039C50.3733 6.46563 50.6925 6.19856 51.0635 6.02594C51.4952 5.82372 51.9688 5.72737 52.4452 5.74489C52.9215 5.76241 53.3868 5.8933 53.8024 6.12668C54.2301 6.34848 54.573 6.70465 54.7784 7.14039C54.9928 6.69924 55.3351 6.33285 55.7606 6.08891C56.2124 5.83032 56.7261 5.69971 57.2465 5.71113C57.6101 5.69638 57.9728 5.75576 58.3127 5.88566C58.6526 6.01555 58.9625 6.21323 59.2236 6.46669Z" fill="#B5B9BB"/>
<path d="M67.3081 13.0464C66.5844 13.5353 65.7254 13.7842 64.8525 13.7579C64.1374 13.7605 63.4342 13.576 62.8125 13.2227C62.2244 12.8875 61.7439 12.3917 61.4273 11.7934C61.0855 11.1438 60.9143 10.418 60.9299 9.68417C60.914 8.9495 61.0875 8.22311 61.4336 7.5749C61.7551 6.9899 62.2352 6.50757 62.8188 6.18341C63.4431 5.84923 64.1448 5.6863 64.8525 5.71119C65.5329 5.69772 66.2053 5.86039 66.8043 6.18341C67.3544 6.47098 67.8125 6.90732 68.1266 7.44268C68.4436 8.02079 68.6022 8.67243 68.5862 9.33157C68.5932 9.64634 68.5657 9.96093 68.5044 10.2697H62.8377C62.84 10.5327 62.8971 10.7923 63.0056 11.0319C63.114 11.2716 63.2713 11.4859 63.4673 11.6612C63.8703 12.0234 64.3992 12.2133 64.9406 12.1901C65.3478 12.2021 65.7512 12.1089 66.1118 11.9194C66.4047 11.7532 66.6282 11.4873 66.7414 11.1701H68.5925C68.4274 11.94 67.966 12.614 67.3081 13.0464ZM66.628 8.99157C66.6333 8.7563 66.5889 8.52255 66.4978 8.30558C66.4067 8.0886 66.2708 7.89327 66.0992 7.73231C65.7336 7.41541 65.2603 7.25089 64.7769 7.27268C64.2767 7.25469 63.7876 7.42296 63.4043 7.7449C63.2243 7.90161 63.08 8.09511 62.9812 8.31235C62.8823 8.52959 62.8313 8.7655 62.8314 9.00416L66.628 8.99157Z" fill="#B5B9BB"/>
<path d="M77.6781 1.88931V13.5375H76.0914L75.9592 12.4294C75.6951 12.8515 75.3147 13.1882 74.8636 13.399C74.3037 13.6581 73.6902 13.7801 73.0737 13.7549C72.4573 13.7297 71.8557 13.5581 71.3188 13.2542C70.7541 12.917 70.2975 12.4255 70.0029 11.8375C69.6774 11.1806 69.5154 10.4549 69.5306 9.72194C69.5155 8.99507 69.6775 8.27544 70.0029 7.62526C70.2997 7.04039 70.7559 6.55143 71.3188 6.21489C71.8918 5.88049 72.5443 5.7065 73.2077 5.71118C73.7161 5.70151 74.2213 5.79356 74.6936 5.98192C75.1076 6.14377 75.4738 6.40808 75.7577 6.75007V1.88931H77.6781ZM75.1596 11.4156C75.5826 10.96 75.8088 10.3559 75.7892 9.73453C75.8182 9.12341 75.6082 8.52499 75.2036 8.06601C74.7841 7.6646 74.2259 7.44056 73.6453 7.44056C73.0647 7.44056 72.5065 7.6646 72.087 8.06601C71.6832 8.52794 71.4734 9.12795 71.5014 9.74083C71.4755 10.3564 71.6874 10.9584 72.0932 11.4219C72.2957 11.6258 72.5366 11.7876 72.8018 11.8981C73.0671 12.0085 73.3516 12.0653 73.639 12.0653C73.9263 12.0653 74.2109 12.0085 74.4761 11.8981C74.7414 11.7876 74.9823 11.6258 75.1847 11.4219L75.1596 11.4156Z" fill="#B5B9BB"/>
<path d="M79.0003 4.09925C78.8793 3.98314 78.7838 3.84314 78.7199 3.68813C78.6559 3.53313 78.6249 3.36651 78.6288 3.19888C78.6244 3.03024 78.6552 2.86254 78.7191 2.70644C78.7831 2.55035 78.8788 2.40927 79.0003 2.29221C79.129 2.17139 79.2805 2.07743 79.4459 2.01581C79.6113 1.95419 79.7873 1.92614 79.9636 1.93332C80.1371 1.92691 80.31 1.95538 80.4723 2.01702C80.6345 2.07867 80.7827 2.17225 80.9081 2.29221C81.0252 2.41189 81.1172 2.55372 81.1789 2.7094C81.2405 2.86508 81.2704 3.03148 81.267 3.19888C81.2671 3.36505 81.2344 3.5296 81.1706 3.68305C81.1068 3.83649 81.0133 3.97581 80.8955 4.09296C80.7739 4.21542 80.6285 4.31159 80.4682 4.3755C80.3079 4.4394 80.1361 4.46967 79.9636 4.46444C79.7867 4.47223 79.61 4.44386 79.4444 4.38107C79.2787 4.31828 79.1276 4.22239 79.0003 4.09925ZM79.0003 5.95037H80.8892V13.5374H79.0003V5.95037Z" fill="#B5B9BB"/>
<path d="M90 5.95045V13.5375H88.1804V12.4609C87.9061 12.8766 87.5197 13.2062 87.0659 13.4116C86.5576 13.6486 86.0022 13.767 85.4414 13.7579C84.7783 13.7742 84.1238 13.604 83.5526 13.2668C83.0056 12.9335 82.5679 12.4477 82.2933 11.869C81.9787 11.2157 81.8233 10.4972 81.84 9.77232C81.8244 9.03461 81.9886 8.3042 82.3185 7.64416C82.6114 7.04966 83.0707 6.5531 83.6407 6.2149C84.1739 5.91979 84.7671 5.74947 85.3757 5.71675C85.9842 5.68403 86.5923 5.78977 87.154 6.02601C87.5973 6.22448 87.9813 6.53475 88.2685 6.92638L88.4133 5.96305L90 5.95045ZM87.4815 11.3905C87.8907 10.9285 88.1051 10.326 88.0796 9.70936C88.1086 9.09823 87.8986 8.49982 87.4941 8.04083C87.0763 7.63839 86.5189 7.41355 85.9389 7.41355C85.3588 7.41355 84.8014 7.63839 84.3837 8.04083C83.9799 8.50277 83.7701 9.10277 83.7981 9.71565C83.7705 10.3304 83.9801 10.9322 84.3837 11.3968C84.5803 11.6048 84.819 11.7686 85.0839 11.8772C85.3489 11.9858 85.6339 12.0366 85.92 12.0264C86.2095 12.0373 86.4981 11.9862 86.7663 11.8766C87.0345 11.7669 87.2762 11.6012 87.4752 11.3905H87.4815Z" fill="#B5B9BB"/>
<path d="M5.71743 3.23041L0.352962 8.58858C0.12688 8.81622 0 9.12404 0 9.44488C0 9.76571 0.12688 10.0735 0.352962 10.3012L1.98371 11.9634L8.18559 5.71745L5.71743 3.23041Z" fill="#B5B9BB"/>
<path d="M14.803 4.85486L13.1723 3.23041L8.18559 8.18561L10.7041 10.7041L14.8219 6.58635C14.9347 6.47161 15.0237 6.33571 15.0839 6.18647C15.144 6.03722 15.174 5.87757 15.1723 5.71668C15.1705 5.55579 15.137 5.39682 15.0736 5.24893C15.0103 5.10103 14.9183 4.96711 14.803 4.85486Z" fill="#B5B9BB"/>
<path d="M6.9578 9.44485L3.23038 13.1723L8.58855 18.5367C8.81619 18.7628 9.12401 18.8897 9.44485 18.8897C9.76568 18.8897 10.0735 18.7628 10.3011 18.5367L12.316 16.5219C12.5424 16.2932 12.6695 15.9843 12.6695 15.6625C12.6695 15.3406 12.5424 15.0317 12.316 14.803L6.9578 9.44485Z" fill="#B5B9BB"/>
<path d="M11.9634 1.98371L10.3011 0.352962C10.0735 0.12688 9.76568 0 9.44484 0C9.12401 0 8.81619 0.12688 8.58854 0.352962L6.95779 1.98371L9.44484 4.47076L11.9634 1.98371Z" fill="#B5B9BB"/>
</svg>
